<?xml version="1.0" encoding="utf-8"?>
<!-- Generator: Adobe Illustrator 25.0.0, SVG Export Plug-In . SVG Version: 6.00 Build 0)  -->
<svg version="1.1" id="Layer_1" xmlns="http://www.w3.org/2000/svg" xmlns:xlink="http://www.w3.org/1999/xlink" x="0px" y="0px"
	 viewBox="0 0 142.8 70.9" style="enable-background:new 0 0 142.8 70.9;" xml:space="preserve">
<style type="text/css">
	.st0{fill:#FFCDDE;}
	.st1{fill:#565656;}
	.st2{fill:#FFFFFF;}
</style>
<path class="st0" d="M88.6,32.7c0.5,0.7,0.9,1.1,1.4,1.7c0.5,0.5,0.9,1,1.4,1.5c1,1,2,1.9,3,2.7c1.2,1,2.5,1.9,3.9,2.6l0,0
	c1.1,0.6,2.2,1.1,3.4,1.5c0,0,0.1,0,0.1,0c1.4,0.5,3,0.8,4.6,0.7c1.6,0,3.2-0.3,4.6-1c0.1,0,0.1-0.1,0.2-0.1c1.1-0.5,1.9-1,2.7-1.5
	c0.2-0.2,0.5-0.3,0.7-0.5c1.1-0.7,2.1-1.5,3.1-2.3c0.7-0.5,1.3-1.1,1.9-1.6c0.8-0.6,1.5-1.3,2.3-1.9l0,0c1.7-1.5,3.3-2.9,5-4.3
	c0.6-0.5,1.2-1,1.8-1.4c0.1,0,0.1-0.1,0.2-0.1c1.6-1.2,3.2-2.4,5-3.3c0.4-0.2,0.9-0.5,1.4-0.7c2-1,4.2-1.7,6.5-2
	c-2.3-0.1-4.6,0.3-6.8,1c-0.5,0.1-1,0.3-1.4,0.5c-2,0.7-3.9,1.7-5.8,2.7c-0.1,0.1-0.2,0.1-0.3,0.2c-0.7,0.4-1.3,0.8-2,1.1
	c-1.9,1.1-3.8,2.3-5.6,3.5c-0.8,0.5-1.7,1.1-2.5,1.6c-0.7,0.4-1.4,0.8-2,1.2c-0.8,0.5-1.6,0.9-2.4,1.3c-0.2,0.1-0.4,0.2-0.6,0.3
	c-0.7,0.3-1.5,0.7-2.1,0.9c-0.3,0.1-0.5,0.2-0.8,0.2c-1.7,0.4-3.3,0.1-4.9-0.7c0,0,0,0,0,0c-1.1-0.5-2.1-1.3-3.1-2.2
	c-0.5-0.5-1.1-1-1.6-1.5c-0.7-0.8-1.4-1.6-2-2.5c-0.3-0.4-0.6-0.9-0.9-1.3c-0.3-0.4-0.6-0.9-0.8-1.3L88.6,32.7z"/>
<path class="st1" d="M133.5,24.3l0.4,1.2c0.4-0.2,0.9-0.5,1.4-0.7l-0.3-1C134.5,24,134,24.1,133.5,24.3z"/>
<path class="st1" d="M125.4,28.3l1.6,2.1c0.6-0.5,1.2-1,1.8-1.4l-1.4-1.8C126.7,27.6,126.1,27.9,125.4,28.3z"/>
<path class="st1" d="M117.3,33.4l2.4,3.3c0.8-0.6,1.5-1.3,2.3-1.9l0,0l-2.1-2.9C119,32.3,118.2,32.9,117.3,33.4z"/>
<path class="st1" d="M110.1,37.1l1.2,5.4c1.1-0.5,1.9-1,2.7-1.5l-1.1-5.1L110.1,37.1z"/>
<path class="st1" d="M101.2,34.4l-2.8,6.8l0,0c1.1,0.6,2.2,1.1,3.4,1.5l2.5-6.1c0,0,0,0,0,0C103.3,36.1,102.2,35.3,101.2,34.4z"/>
<g>
	<path class="st1" d="M18.8,22c0.8,0.9,1.3,1.8,1.8,2.8L6.4,37.4c-0.9-0.5-1.8-1.2-2.6-2.1c-3.7-4.1-3.3-10.4,0.8-14.1
		C8.8,17.5,15.1,17.9,18.8,22z"/>
	<path class="st0" d="M16.4,26c0.4,0.5,0.7,1,1,1.5l-7.8,6.9c-0.5-0.3-1-0.7-1.4-1.1c-2-2.3-1.8-5.7,0.5-7.8
		C10.9,23.5,14.4,23.7,16.4,26z"/>
</g>
<path class="st2" d="M93.7,45.7C93.7,45.7,93.7,45.8,93.7,45.7c0,11.3-9.1,20.3-20.3,20.3c-6.3,0-11.9-2.9-15.6-7.3
	c-4.7,1-9.9,1.6-15.4,1.6c-21.8,0-39.5-9.1-39.5-20.3c0-10.8,16.4-19.6,37.2-20.2c3.7-4.6,9.4-7.6,15.8-7.6c4.8,0,9.3,1.7,12.8,4.5
	c3.1-2.8,7.1-4.5,11.4-4.5c9.9,0,18,9.1,18,20.3C98,37.5,96.4,42.2,93.7,45.7z"/>
<g>
	<path class="st1" d="M48.5,35.2c-0.7,0.9-1.6,1.7-2.5,2.4L31,26.1c0.4-1.1,0.9-2.1,1.6-3c3.5-4.6,9.9-5.6,14.3-2.2
		C51.4,24.2,52.1,30.6,48.5,35.2z"/>
	<path class="st0" d="M44.2,33.7c-0.4,0.5-0.9,1-1.4,1.3l-8.3-6.3c0.2-0.6,0.5-1.1,0.9-1.7c1.9-2.5,5.5-3.1,7.9-1.2
		C45.7,27.6,46.1,31.1,44.2,33.7z"/>
</g>
</svg>
