<?xml version="1.0" encoding="utf-8"?>
<!-- Generator: Adobe Illustrator 25.0.0, SVG Export Plug-In . SVG Version: 6.00 Build 0)  -->
<svg version="1.1" id="Layer_1" xmlns="http://www.w3.org/2000/svg" xmlns:xlink="http://www.w3.org/1999/xlink" x="0px" y="0px"
	 viewBox="0 0 121.4 70.9" style="enable-background:new 0 0 121.4 70.9;" xml:space="preserve">
<style type="text/css">
	.st0{fill:#565656;}
	.st1{fill:#FFCDDE;}
	.st2{fill:#FFFFFF;}
</style>
<g>
	<path class="st0" d="M107.4,21.6c-0.6,1.1-1.3,2-2.1,2.8l-16.7-8.8c0.2-1.1,0.6-2.2,1.1-3.3c2.7-5.1,8.9-7.2,13.7-4.6
		C108.4,10.2,110.1,16.5,107.4,21.6z"/>
	<path class="st1" d="M102.8,20.8c-0.3,0.6-0.7,1.1-1.1,1.5l-9.2-4.9c0.1-0.6,0.3-1.2,0.6-1.8c1.5-2.8,4.9-3.9,7.6-2.5
		C103.3,14.6,104.3,18,102.8,20.8z"/>
</g>
<path class="st2" d="M117.7,44.4c0,11.7-18.5,21.2-41.3,21.2c-7.3,0-14.1-1-20.1-2.7c-3.9,4.8-9.8,7.9-16.5,7.9
	c-11.7,0-21.2-9.5-21.2-21.2s9.5-21.2,21.2-21.2c0.1,0,0.1,0,0.2,0c-0.7-2.1-1.1-4.4-1.1-6.7C39,10,48.4,0.6,60.1,0.6
	c9,0,16.6,5.6,19.7,13.5c2.5-1.4,5.4-2.2,8.4-2.2c9.5,0,17.4,8,18.6,18.3C113.6,33.8,117.7,38.9,117.7,44.4z"/>
<path class="st1" d="M23.9,49.6c-0.7,0.1-1.1,0.1-1.7,0.1c-0.5,0-1.1,0-1.6,0c-1.1,0-2.1-0.1-3.2-0.2c-1.2-0.1-2.4-0.4-3.7-0.7l0,0
	c-0.9-0.3-1.8-0.6-2.7-1.1c0,0,0,0-0.1,0c-1.1-0.5-2.1-1.2-3-2.1c-0.9-0.9-1.6-2-2-3.1v-0.1c-0.3-0.9-0.5-1.6-0.6-2.3
	c0-0.2-0.1-0.4-0.1-0.7c-0.2-1-0.3-2-0.4-3c-0.1-0.7-0.1-1.3-0.2-2c-0.1-0.8-0.1-1.5-0.2-2.3l0,0C4.1,30.4,4,28.7,3.8,27
	c0-0.6-0.1-1.2-0.2-1.8v-0.1c-0.2-1.6-0.5-3.1-0.9-4.6c-0.1-0.4-0.2-0.8-0.4-1.2C1.8,17.6,1,16-0.1,14.6c1.3,1.2,2.4,2.7,3.2,4.3
	c0.2,0.3,0.4,0.7,0.5,1.1c0.7,1.5,1.3,3.1,1.7,4.7c0,0.1,0,0.2,0.1,0.3c0.2,0.6,0.3,1.2,0.5,1.7c0.4,1.7,0.8,3.4,1.2,5
	c0.2,0.8,0.3,1.5,0.5,2.3c0.1,0.6,0.3,1.2,0.5,1.8c0.2,0.7,0.4,1.4,0.6,2.1c0,0.2,0.1,0.4,0.2,0.5c0.2,0.6,0.4,1.2,0.7,1.7
	c0.1,0.2,0.2,0.4,0.3,0.6c0.7,1.2,1.8,1.9,3.1,2.3l0,0c0.9,0.3,1.9,0.4,2.9,0.5c0.6,0,1.1,0,1.7,0c0.8,0,1.7-0.1,2.5-0.2
	c0.4-0.1,0.8-0.1,1.2-0.2c0.4-0.1,0.9-0.2,1.1-0.3L23.9,49.6z"/>
<path class="st0" d="M3.6,20l-0.9,0.5c-0.1-0.4-0.2-0.8-0.4-1.2L3,18.9C3.3,19.2,3.4,19.6,3.6,20z"/>
<path class="st0" d="M5.9,26.7l-2,0.3c0-0.6-0.1-1.2-0.2-1.8L5.5,25C5.6,25.5,5.7,26.1,5.9,26.7z"/>
<path class="st0" d="M7.6,34l-3.1,0.5c-0.1-0.8-0.1-1.5-0.2-2.3l0,0l2.8-0.4C7.2,32.5,7.4,33.2,7.6,34z"/>
<path class="st0" d="M9.5,40.1l-3.7,2.3c-0.3-0.9-0.5-1.6-0.6-2.3l3.5-2.2L9.5,40.1z"/>
<path class="st0" d="M15.9,43.5l-2.2,5.3l0,0c-0.9-0.3-1.8-0.6-2.7-1.1l2-4.8l0,0C13.9,43.3,14.9,43.5,15.9,43.5z"/>
<g>
	<path class="st0" d="M70.3,23.7c0.8,0.9,1.3,1.8,1.8,2.8L57.9,39c-0.9-0.5-1.8-1.2-2.6-2.1c-3.7-4.1-3.3-10.4,0.8-14.1
		C60.3,19.2,66.6,19.5,70.3,23.7z"/>
	<path class="st1" d="M67.9,27.6c0.4,0.5,0.7,1,1,1.5L61.1,36c-0.5-0.3-1-0.7-1.4-1.1c-2-2.3-1.8-5.7,0.5-7.8
		C62.4,25.2,65.9,25.4,67.9,27.6z"/>
</g>
</svg>
