<?xml version="1.0" encoding="utf-8"?>
<!-- Generator: Adobe Illustrator 25.0.0, SVG Export Plug-In . SVG Version: 6.00 Build 0)  -->
<svg version="1.1" id="Ebene_1" xmlns="http://www.w3.org/2000/svg" xmlns:xlink="http://www.w3.org/1999/xlink" x="0px" y="0px"
	 viewBox="0 0 1920 1080" style="enable-background:new 0 0 1920 1080;" xml:space="preserve">
<style type="text/css">
	.st0{opacity:0.9;fill:#FFFFFF;}
	.st1{fill:#FFFFFF;}
</style>
<polygon class="st0" points="962,89.8 964.4,98.5 973,100.9 964.4,103.3 962,111.9 959.6,103.3 950.9,100.9 959.6,98.5 "/>
<polygon class="st0" points="495.2,341.6 497.6,350.2 506.2,352.6 497.6,355 495.2,363.7 492.8,355 484.1,352.6 492.8,350.2 "/>
<polygon class="st0" points="274.2,272.4 276.6,281.1 285.3,283.4 276.6,285.8 274.2,294.5 271.9,285.8 263.2,283.4 271.9,281.1 "/>
<polygon class="st0" points="533.8,84.8 541.6,89.2 549.4,84.8 545,92.6 549.4,100.4 541.6,96 533.8,100.4 538.2,92.6 "/>
<polygon class="st0" points="97.7,157.8 105.5,162.2 113.3,157.8 108.9,165.6 113.3,173.4 105.5,169 97.7,173.4 102.1,165.6 "/>
<polygon class="st0" points="1284.2,235.4 1292.3,239.2 1299.8,234.1 1295.9,242.3 1301,249.7 1292.8,245.9 1285.4,250.9 
	1289.2,242.8 "/>
<polygon class="st0" points="1612.4,364.2 1620.9,361.1 1622.6,352.3 1625.6,360.8 1634.4,362.5 1626,365.5 1624.3,374.4 
	1621.2,365.9 "/>
<polygon class="st0" points="1361.5,400.2 1359.1,391.5 1350.4,389.2 1359.1,386.8 1361.5,378.1 1363.8,386.8 1372.5,389.2 
	1363.8,391.5 "/>
<polygon class="st0" points="1833,125.4 1824.9,121.6 1817.4,126.6 1821.2,118.5 1816.2,111.1 1824.3,114.9 1831.8,109.8 1828,118 
	"/>
<polygon class="st0" points="1126.5,517.8 1118,520.9 1116.3,529.7 1113.3,521.2 1104.5,519.5 1112.9,516.5 1114.6,507.7 
	1117.7,516.1 "/>
<polygon class="st0" points="849.4,377.6 840.9,380.6 839.2,389.4 836.2,381 827.4,379.3 835.8,376.2 837.5,367.4 840.6,375.9 "/>
<circle class="st0" cx="1112" cy="101" r="3"/>
<circle class="st0" cx="619.3" cy="400.5" r="3"/>
<circle class="st0" cx="384.7" cy="104.7" r="3"/>
<circle class="st0" cx="1149.7" cy="395.6" r="3"/>
<circle class="st0" cx="1885.4" cy="344.3" r="3"/>
<circle class="st0" cx="1433.2" cy="182.9" r="3"/>
<circle class="st0" cx="1007.9" cy="290.5" r="3"/>
<circle class="st0" cx="778.2" cy="165.8" r="3"/>
<circle class="st0" cx="142.7" cy="70.5" r="3"/>
<circle class="st0" cx="575.3" cy="610.7" r="3"/>
<g>
	<path class="st1" d="M1571.5,229.9l80.3-89.5l-78.8,90.8c-0.4,0.4-1,0.5-1.4,0.1C1571.1,231,1571.1,230.3,1571.5,229.9
		C1571.5,229.9,1571.5,229.9,1571.5,229.9z"/>
</g>
</svg>
