<?xml version="1.0" encoding="utf-8"?>
<!-- Generator: Adobe Illustrator 25.0.0, SVG Export Plug-In . SVG Version: 6.00 Build 0)  -->
<svg version="1.1" id="Layer_1" xmlns="http://www.w3.org/2000/svg" xmlns:xlink="http://www.w3.org/1999/xlink" x="0px" y="0px"
	 viewBox="0 0 183.1 270.7" style="enable-background:new 0 0 183.1 270.7;" xml:space="preserve">
<style type="text/css">
	.st0{fill:#F8EC92;}
	.st1{opacity:0.42;fill:#F8EC92;enable-background:new    ;}
	.st2{fill:#F06D32;}
	.st3{fill:#FEB031;}
	.st4{fill:#FBCF36;}
	.st5{fill:#00978F;}
	.st6{fill:#FFB93B;}
	.st7{fill:#FFFFFF;stroke:#000000;stroke-width:0.25;stroke-miterlimit:10;}
	.st8{fill:#9B1B1D;}
	.st9{fill:#E51F2B;}
	.st10{fill:#FFFFFF;}
	.st11{fill:#175D79;}
	.st12{fill:#AADCEF;}
	.st13{fill:#DBDBDB;}
	.st14{opacity:5.000000e-02;fill:#FFFFFF;enable-background:new    ;}
	.st15{opacity:0.15;fill:none;stroke:#FFFFFF;stroke-width:6;stroke-miterlimit:10;enable-background:new    ;}
	.st16{opacity:0.15;fill:none;stroke:#D2EDFB;stroke-width:4;stroke-miterlimit:10;enable-background:new    ;}
	.st17{fill:none;stroke:#E51F2B;stroke-width:5;stroke-miterlimit:10;}
	.st18{opacity:0.37;fill:#CACACA;enable-background:new    ;}
	.st19{fill:none;stroke:#DBDBDB;stroke-linecap:round;stroke-linejoin:round;}
	.st20{fill:none;stroke:#DBDBDB;stroke-linecap:round;stroke-linejoin:round;stroke-dasharray:8.810000e-02,5.2873;}
	.st21{fill:none;stroke:#DBDBDB;stroke-width:0.5363;stroke-linecap:round;stroke-linejoin:round;stroke-miterlimit:10;}
	.st22{fill:none;stroke:#DBDBDB;stroke-linecap:round;stroke-linejoin:round;stroke-dasharray:9.780000e-02,5.8692;}
	.st23{fill:#90171A;}
	.st24{opacity:5.000000e-02;}
	.st25{opacity:0.15;}
	.st26{fill:#D2EDFB;}
	.st27{opacity:0.37;}
	.st28{fill:#CACACA;}
	.st29{fill:url(#);}
	.st30{fill:none;stroke:#90171A;stroke-width:2;stroke-miterlimit:10;}
	.st31{opacity:0.56;fill:#FFFFFF;enable-background:new    ;}
	.st32{fill:#7B3021;}
	.st33{fill:#913B25;}
	.st34{fill:none;stroke:#913B25;stroke-miterlimit:10;}
	.st35{fill:none;stroke:#7B3021;stroke-miterlimit:10;}
	.st36{fill:#FAF2B5;}
	.st37{fill:#008177;}
	.st38{fill:#C6C491;enable-background:new    ;}
	.st39{fill:#F5A9A9;}
	.st40{fill:#EC6961;}
	.st41{fill:#4D8D5C;}
	.st42{fill:#0B763E;}
	.st43{fill:#047238;}
	.st44{opacity:0.5;fill:#FAF2B5;enable-background:new    ;}
	.st45{fill:#76B135;}
	.st46{clip-path:url(#SVGID_2_);}
	.st47{clip-path:url(#SVGID_4_);}
	.st48{fill:#5CA435;}
	.st49{fill:#008C36;}
	.st50{fill:#00712D;}
	.st51{fill:#005E2B;}
	.st52{clip-path:url(#SVGID_6_);}
	.st53{clip-path:url(#SVGID_8_);}
	.st54{fill:#009A3B;}
	.st55{fill:#098132;}
	.st56{fill:#70AF35;}
	.st57{clip-path:url(#SVGID_10_);enable-background:new    ;}
	.st58{clip-path:url(#SVGID_12_);}
	.st59{clip-path:url(#SVGID_14_);enable-background:new    ;}
	.st60{clip-path:url(#SVGID_16_);}
	.st61{clip-path:url(#SVGID_18_);}
	.st62{clip-path:url(#SVGID_20_);}
	.st63{fill:#7AB334;}
	.st64{fill:#098031;}
	.st65{clip-path:url(#SVGID_22_);enable-background:new    ;}
	.st66{clip-path:url(#SVGID_24_);}
	.st67{clip-path:url(#SVGID_26_);enable-background:new    ;}
	.st68{clip-path:url(#SVGID_28_);}
	.st69{clip-path:url(#SVGID_30_);enable-background:new    ;}
	.st70{clip-path:url(#SVGID_32_);}
	.st71{clip-path:url(#SVGID_34_);enable-background:new    ;}
	.st72{clip-path:url(#SVGID_36_);}
	.st73{clip-path:url(#SVGID_38_);enable-background:new    ;}
	.st74{clip-path:url(#SVGID_40_);}
	.st75{clip-path:url(#SVGID_42_);enable-background:new    ;}
	.st76{clip-path:url(#SVGID_44_);}
	.st77{clip-path:url(#SVGID_46_);enable-background:new    ;}
	.st78{clip-path:url(#SVGID_48_);}
	.st79{clip-path:url(#SVGID_50_);enable-background:new    ;}
	.st80{clip-path:url(#SVGID_52_);}
	.st81{clip-path:url(#SVGID_54_);enable-background:new    ;}
	.st82{clip-path:url(#SVGID_56_);}
	.st83{clip-path:url(#SVGID_58_);enable-background:new    ;}
	.st84{clip-path:url(#SVGID_60_);}
	.st85{clip-path:url(#SVGID_62_);enable-background:new    ;}
	.st86{clip-path:url(#SVGID_64_);}
	.st87{clip-path:url(#SVGID_66_);enable-background:new    ;}
	.st88{clip-path:url(#SVGID_68_);}
	.st89{clip-path:url(#SVGID_70_);enable-background:new    ;}
	.st90{clip-path:url(#SVGID_72_);}
	.st91{clip-path:url(#SVGID_74_);enable-background:new    ;}
	.st92{clip-path:url(#SVGID_76_);}
	.st93{clip-path:url(#SVGID_78_);}
	.st94{clip-path:url(#SVGID_80_);}
	.st95{fill:url(#SVGID_81_);}
	.st96{opacity:0.4;fill:#333333;enable-background:new    ;}
	.st97{opacity:0.4;fill:#FFFFFF;enable-background:new    ;}
	.st98{clip-path:url(#SVGID_83_);enable-background:new    ;}
	.st99{clip-path:url(#SVGID_85_);}
	.st100{fill:url(#SVGID_86_);}
	.st101{clip-path:url(#SVGID_88_);enable-background:new    ;}
	.st102{clip-path:url(#SVGID_90_);}
	.st103{fill:url(#SVGID_91_);}
	.st104{fill:#78C9E7;}
	.st105{fill:#F4A8A8;}
	.st106{fill:#F7BEBE;}
	.st107{fill:#F08F89;}
	.st108{fill:#EB6961;}
	.st109{fill:#0C763E;}
	.st110{fill:#4E8D5D;}
	.st111{fill:#4E8D5C;}
	.st112{fill:#057239;}
	.st113{fill:#057238;}
	.st114{fill:#067339;}
	.st115{fill:#067239;}
	.st116{fill:#06733A;}
	.st117{fill:#FDF3F2;}
	.st118{fill:#FADDDB;}
	.st119{fill:#EC6E66;}
	.st120{fill:#C5D9CC;}
	.st121{fill:#F3AAA5;}
	.st122{fill:#4E8E5E;}
	.st123{fill:#0C763F;}
	.st124{fill:#F4A9A9;}
	.st125{fill:#EB6C64;}
	.st126{fill:#0E7740;}
	.st127{fill:#F9D8D6;}
	.st128{fill:#F8CCCC;}
	.st129{fill:#F5D6D3;}
	.st130{fill:#C1D8CA;}
	.st131{fill:#C1DCCE;}
	.st132{fill:#EB6A62;}
	.st133{fill:#BCD9CA;}
	.st134{fill:#F6BDB9;}
	.st135{fill:none;stroke:#B7B7B7;stroke-width:2;stroke-miterlimit:10;}
	.st136{fill:#0D773F;}
</style>
<g>
	<path d="M108.8,238.1l-1.1,0.5c-2.5-0.1-5.6,3-7.9,4.2c-9.3,4.8-7.7,8.2-5.1,7.5l17.8-2.8l0.9-4.5
		C113.4,240.4,111.4,238.3,108.8,238.1z"/>
	<g>
		<g>
			<path class="st13" d="M112.8,236.8l0.6-1.1c1-3.2-1.6-5.6-5-5.1l-1.1,0.2c-3.3,0.5-4.1,5.2-2.7,6.7c0.2,0.2,0.6,0.6,0.7,0.7
				C109,241.3,111.5,240.1,112.8,236.8z"/>
			<path class="st10" d="M113.5,235.5L113.5,235.5c1.3-2-1.6-6-4.9-5.5l-1.7,0.3c-3.2,0.5-4.8,4.3-2.8,6.9c0,0,0.8,0.6,1,0.9
				c2.1,2.3,5.9,2.2,7.4-1C112.9,236.6,113.2,235.9,113.5,235.5z"/>
			<path d="M113.6,232.9c0.1,0.3,0.2,0.6,0.2,0.9c-0.3,0-0.6-0.1-0.7-0.1c-0.2-0.2-1.6-1.4-2-1.6c-0.5-0.2-0.7,0.4-1.2,1
				c-0.5,0.5-0.5,0-1.1-0.3c-0.6-0.3-0.6,0.8-0.6,0.8l-0.1,0.1c-0.3,0.7-0.9,1.3-1.6,1.5l0,0l-1.1,1.3c0,0-0.5,0.6-0.6,0.9
				c0,0-0.1-0.1-0.3-0.3c-0.7-1-1-1.7-1-2.8l-1.6-6.1c-0.1-0.7,0.6-1.2,1.2-0.8l3.7,2.6c0.1,0,0.2,0,0.2,0l2.2-0.4
				c0.1,0,0.2,0,0.3,0l2.5-3.7c0.4-0.5,1.2-0.3,1.4,0.4L113.6,232.9z"/>
			<path d="M109.5,236.9l0.3-0.7c0.1-0.2-0.1-0.6-0.4-0.5c-0.1,0-0.3,0.1-0.4,0.2c-0.1,0-0.3,0-0.4,0c-0.3,0-0.4,0.4-0.2,0.6
				l0.5,0.5C109.1,237.2,109.4,237.2,109.5,236.9z"/>
		</g>
		<path class="st14" d="M102.8,229.3l1.1,3.5l1.5-2l-2.3-1.7C102.9,228.9,102.7,229.1,102.8,229.3z"/>
		<path class="st14" d="M112.4,227.4l0.2,3.7l-2.1-1.3l1.5-2.4C112.1,227.1,112.4,227.2,112.4,227.4z"/>
	</g>
</g>
<g>
	<path class="st32" d="M115.3,246.5v13.1c0,6.1-5,11.2-11.1,11.2H95v-24.1L115.3,246.5L115.3,246.5z"/>
	<path class="st33" d="M95,246.5v24.1h-9.2c-6.1,0-11.1-5-11.1-11.2v-13.1L95,246.5L95,246.5z"/>
	<line class="st34" x1="75.2" y1="246.6" x2="75.2" y2="220"/>
	<line class="st35" x1="114.9" y1="246.6" x2="114.9" y2="220"/>
	<line class="st35" x1="102.1" y1="246.6" x2="102.1" y2="220"/>
	<line class="st34" x1="89.3" y1="246.6" x2="89.3" y2="220"/>
</g>
<path class="st5" d="M87,12.9c0,0,8.1,11.4,8.1,13.6c0,1.1,0,2.5,0,4.1c1.1,19,19.4,34.1,12.3,53.8c-3,9.8,12.2,16.1,11.5,26.8
	c0,2.2-0.4,4.6-1.4,7.1c-0.5,1.8-1.5,3.2-2.9,4.5c-1.3,1.3-3,2.3-4.8,3.3C93.1,137,98,133.2,99.5,150.3c0.8,9-5.3,43.8-4.6,53.4
	c0.2,2.5,0.2,4.8,0.2,6.8c0,6,0,9.5,0,9.5h-6.7c-1-2.6-1.9-5.2-2.8-7.8c-2.3-6.6-0.9-3-2.9-7.8c-24-18.4-28.1-41.6-18-68.4
	c0.3-1.8,0.9-3.5,1.7-5.1c3.8-8.3,11.5-15.2,11.5-23.4c0-2.1-0.4-4-1.1-5.9c-0.9-6.6-12.1-13.7-4-17.3C101.2,71.9,85,54,81,34.4
	c-1-3.6,4.1-5.4,4.6-7.6c1.5-1.1-1.1,2.2,0.5,1.5C87.6,27.7,85.3,13,87,12.9z"/>
<path class="st36" d="M82,108.8c2.5,6.1,3,12.2,2,18.3c-0.3,2-0.8,4-1.5,6.1c-2.6,4.7-5.6,10.1-3.6,14.5c8.1,16.1,15.2,32.1,5.1,49
	c-2,2.7-1,6.2-0.5,9.7c1.7,5,0.1,0.4,2.3,6.8c0.8,2.3,1.6,4.5,2.4,6.8H75.5c-1.5-2.1-2.9-6.8-4.3-8.8s2.5-1.5,1.1-3.5
	c-3.5-19.8-18.7-35-28.3-51.8c-1.3-2.1-2.5-4.3-3.7-6.5c-8-15.9-11.1-33.7-9.6-51.9c0.4-2.1,0.8-4.2,1.5-6.3
	c0.6-2.1,1.4-4.2,2.3-6.2c0.9-2.1,1.9-4.3,2.9-6.4c15.2-19.9,34.3-40.1,29.4-52.4c-0.7-1.8,5.3-7.8,7.5-7.8l-4,6.9
	c-1.9,0.1,14.2,6.7,12.4,7.5c-4.4,2.8-0.7-1.9,1.3,1.7c4.1,13.8,10.5,28.9,9.2,42.9c-0.2,2.3-0.7,4.6-1.4,6.9
	c-1.7,7.2-5.8,13.5-9.4,19.9C82,105.6,81.9,107.2,82,108.8z"/>
<path class="st37" d="M140.6,104.9c0.5,6.7,0.1,13.2-1,19.7c-0.3,2.2-0.8,4.3-1.2,6.5c-1.6,6.8-2.6,13.9-5.7,21
	c-6.1,15.2-14.2,29.4-17.5,44.7c-1.1,2.5-2.2,5.1-3.3,7.7c-2.3,5.1-4.7,10.3-7.2,15.5H95c0,0,0-5.3,0-14.2c0-2.2,0-4.7,0-7.3
	c-3.6-9.3-4.8-18.4-4.5-27.6c0.1-2.3,0.2-4.6,0.5-6.9c1.2-11,5.2-20.9,5.2-31.6c-0.4-6.7-1.3-13.5-2.1-20.3
	c-0.3-2.3-0.5-4.6-0.7-6.8c0.8-20.1,7.9-40.6,0.8-61.1c-0.5-1.8-0.3-3.6,0.1-5.5s0.8-3.9,0.8-6.1c0-3,5.1,1.6,5.1-0.1
	s7.6-15.5,7.6-15.5c0.1,0,0.1,0,0.2,0c0,0,0,0,0,0s0,0,0,0c0,0,0,0,0,0h0c0,0,0,0,0,0c0,0,0,0,0,0s0,0,0,0c0,0,0,0,0,0h0
	c0,0,0,0,0,0h0c0.1,0,0.1,0,0.2,0h0.1c4.1,0.1-4.6,7.2-0.9,9.2c1.9,1,3.7,2.2,5.5,3.6c57.9,46.7,33.1,91.1,24.8,45.9
	c0.4,2.1,0.7,4.2,1,6.4c0.3,2.1,0.5,4.2,0.7,6.3c0.3,2.6,0.5,5.3,0.7,8C140.4,99.2,140.5,102.1,140.6,104.9z"/>
<path class="st38" d="M109.4,28.7c3-1,7-3,9.5-0.2c0.5,0.3,1,0.7,1.5,1.2c0.2,0.3,0.5,0.7,0.8,1.2c5.8,8.7,22.8,37.4,24.4,38.7
	c1.8,1.6,3.6,3.3,4.5,5.6c6.6,6.5,7.6,4.7,4.3,7c3.7-5.1,3.2-6.1,2.7,6.8c5-0.3,4,4.2,2.4,10c-0.2,1.2-1.3,3.7-2.5,6.3
	c-1,4.9-5,9.3-5,14.7c-1,11.6,5.1,24.1-2.1,35.4c-1.4,2.3-2.8,4.6-4.2,6.8c-19,15.7-24.9,35.2-34,57.5c0,0-7.2,0.1-9.3,0.1
	c4.1-21.4,12.2-41.9,19.5-63.2c1.6-2.3,3-4.7,4.3-7.1c8.7-18,6.6-40.3,2.1-59.1c-1-2.5-2-4.9-3.2-7.3c-0.4-2.3-0.9-4.6-1.3-7
	c-2.1-11.6-4.7-23.2-8.3-34.9c-0.3-0.8-0.6-1.6-1-2.4c-0.2-0.4-0.3-0.8-0.5-1.2c-0.1-0.5-0.2-1-0.4-1.5c0.5-0.9,0.4-1.6-0.1-2.2
	s-1.1-1-1.8-1.5C110.4,31.7,108.4,30.7,109.4,28.7c1,1,3,1,4,1c-1,1-3,1-4,1c1-1,2-1,3-1"/>
<path class="st105" d="M75.2,220c-0.9-1.1-1.8-2.2-2.7-3.3c-0.5-0.7-0.7-4.1-0.6-5c0-0.2-0.1-0.4,0.2-0.5c0.2-0.1,0.4,0.1,0.5,0.2
	c0.5,0.5,0.9,3.7,1.4,4.2c0.6,0.7,1.2,0.7,1.8-0.1c0,0,0-0.1,0.1-0.1c1.7-2.2,7.7-2.2,9.5-0.1c0.8,1,1.1,1,2,0.1
	c0.4-0.4,0.7-0.8,1.1-1.1c0.2-0.2,0.4-0.7,0.8-0.5c0.4,0.2,0.2,0.6,0.2,0.9c0,1.2,0,2.4,0,3.6c-0.2,0.4-0.6,0.8,0,1.2
	c0,0.1,0,0.2,0,0.2c-1.4,0.3-2.8,0.1-4.2,0.1c-0.2,0-5.9,0-6.1-0.1c0,0-0.1,0-0.1-0.1c-1.1-1.3-1.3-1.3-2.4,0.1
	c-0.1,0.1-0.2,0.2-0.2,0.2C76,220,75.6,220,75.2,220z"/>
<path class="st106" d="M79.3,219.8c1.5,0,8.6,0,10.1,0c0,0.1,0,0.2,0,0.3c-1.5,0-8.6,0-10.2,0C79.2,219.9,79.2,219.9,79.3,219.8
	C79.3,219.8,79.3,219.8,79.3,219.8z"/>
<path class="st107" d="M79.3,219.8c0,0.1,0,0.2,0,0.2c-1,0-1.9,0-2.9,0c0-0.1,0-0.2,0-0.3c0.9-0.5,1.8-0.4,2.7-0.2
	C79.1,219.6,79.2,219.7,79.3,219.8z"/>
<path class="st108" d="M109.4,193.1c-4.3-0.4-3-3.9-2.3-5.7c2-5.3,8.8-7.7,15.5-8.3c-3.4,5.3-6.7,11.2-12.8,14.1
	C109.5,193.3,109.4,193.4,109.4,193.1z"/>
<path class="st108" d="M79.2,40.4c-3-1.5-3.7-5-4.1-6.1c2.6,1.1,6.4-0.7,8.6,2.9c2.3,0.9-0.7,3.5-2.9,3.4
	C80.3,40.7,79.8,40.7,79.2,40.4z"/>
<path class="st105" d="M122.6,179c-2,2.6-4.7,3.1-8.1,3.1c-1.3,0-2,1.2-2,2.4c-4-7.1,6.1-8.9,12.1-10.1c0,0.6-0.7,1.2-0.5,1.6
	C123.6,176.9,123.1,177.9,122.6,179z"/>
<path class="st43" d="M80.8,40.6c0.7,1.8,2.2,9.8-1.5,6.3c-0.8,0,0-3.6,0-6.4C79.7,40.3,80.3,40.5,80.8,40.6z"/>
<path class="st42" d="M114,68.1c0.6,0.6,1.1,1.2,1.6,1.7c5,4.7,5,10.9,5,17.2c-9.1-3.6,0-12.5-6.6-17.2
	C113.7,69.2,113.5,68.4,114,68.1z"/>
<path class="st109" d="M109.4,193.1c1.1,2.6,3.7,9.7-1,7.9c-2.7-0.6,0.7-4.1,0.3-6.6C108.9,194,109,193.6,109.4,193.1z"/>
<path class="st105" d="M84,36.1c-3.2-1.7-6.3-1.7-8.9-1.9c3.3-2.5,6.4-4.3,8.8,1.5C84.1,32.7,84.1,33,84,36.1z"/>
<path class="st41" d="M74.9,45.4c-0.1-1.6-0.2-2.4-0.2-3.9c2.2,1.9,5.1,3.6,3.7,5.6c-0.8,2.7-0.7-2.9-3.2-2.1
	C75.2,45.2,75.2,45.4,74.9,45.4z"/>
<path class="st110" d="M82.3,49c-1.5-3.9,0.8-5.7,3.8-6.6c-0.8,1.8-2.3,2.7-2.8,4.1C81.9,47.4,81.9,47.6,82.3,49z"/>
<path class="st41" d="M111.1,200.9c0.6-3.4,3.3-5.8,6-8.1c0.7,3-2,4.1-4,5.8C112.2,199.4,111.5,200.1,111.1,200.9z"/>
<path class="st111" d="M104.2,196c-0.3-1,0.3-1.8,0.2-2.5c1.3,1.5,3.3,2.1,3.7,4.8c-0.8-0.6-1.4-0.5-2.5-1.2
	C105.2,196.7,104.8,196.2,104.2,196z"/>
<g>
	<path class="st108" d="M40.4,123.6c1,2.7,4.1,5.4,1,8c-1,0.9-2,1.8-3,0.9c-3-2.7-5.1-6.2-4.1-9.8c1,0.9,2,1.8,4.4,2.1
		C39,124.4,39.4,123.5,40.4,123.6z"/>
	<path class="st105" d="M40.4,123.6c-3,2.7-9.1-1.8-6.1-5.3c4.1,3.6,7.1,0.9,10.1-0.9c1,2.7-3,2.7-3.6,4.9
		C40.6,122.7,40.5,123.1,40.4,123.6z"/>
	<path class="st112" d="M40.9,132.7c2.6,1.6,2.6,4.3,3.4,6c0.2,1,0.4,1.9,0.5,2.7c0.2,0.8,0.3,1.6,0.5,2.4c0.5,2.3,1.1,4.6,2.2,6.6
		c-4.6-0.4-6.1-3.6-6.7-7.3c-0.1-0.7-0.2-1.5-0.3-2.3c0-0.9,0.1-1.8,0.3-2.7c2.6-2-0.4-3.8-1-5.5C40.1,132.5,40.3,132.3,40.9,132.7z
		"/>
	<path class="st41" d="M47.4,150.4c-1.5-2.7-2.2-5.9-2.1-8.9c0-0.8,0.1-1.5,0.3-2.2c0.2-0.6,0.4-1.1,0.7-1.7
		c-0.8-1.6,2.2-2.5,2.2-4.3c0,0.9,0,2.7-0.3,3.5c-0.1,0.6-0.2,1.2-0.3,1.8c-0.5,3.1-1.2,6.3-0.8,9.3
		C47.3,148.9,47.6,149.5,47.4,150.4z"/>
	<path class="st110" d="M35.1,138.5c0.3-1.5,0.3-2.4,0.3-4.2c0,2.7,2,3.6,3.7,4.7c0.4,0.3,0.7,0.7,1,1.1c0.6,0.8,0.9,1.7,0.7,2.8
		c0.2,0.6,0.4,1.2,0.5,1.8c0.1,0.7,0.2,1.3,0.2,2.1c-0.3-0.7-0.6-1.3-1.1-1.9c-0.4-0.6-1-1.1-1.5-1.7c-0.8-0.5-1.1-1.1-1.4-1.8
		s-0.5-1.3-0.9-1.7C36.1,139.2,35.7,138.7,35.1,138.5z"/>
	<path class="st113" d="M35.1,138.5c0.6,0.6,1.2,1.1,1.7,1.6c0.5,0.5,0.9,1,1.3,1.6c0.6,0.6,1.1,1.1,1.6,1.7c1.5,1.8,2.2,3.8,0.7,6
		c0-2.2-1.3-3.8-2.6-5.2c-0.4-0.5-0.9-0.9-1.3-1.4c-0.6-0.3-0.8-0.8-1-1.4c-0.2-0.6-0.3-1.2-0.6-1.6
		C34.9,139.4,35.1,138.9,35.1,138.5z"/>
	<path class="st114" d="M47.4,150.4c-0.7-3.4-0.8-7.3,0-10.9c0.1-0.6,0.3-1.2,0.5-1.8c0.2-0.6,0.4-1.2,0.7-1.7
		c0.5,0.7,0.8,1.5,1,2.2c0.8,3.5-1.9,6.6-1.6,10.3C47.8,149.2,47.6,149.9,47.4,150.4z"/>
</g>
<path class="st113" d="M104.2,196c1.5,2.3,5.7,0.6,3.7,3.5c-1.2,0.6-2.8-1.2-3.3-1.8C104.1,197.3,104.3,196.6,104.2,196z"/>
<path class="st112" d="M152.7,108c0.1-0.9,0.8-1.4,1.6-1.9c0.9-0.5,1.7-1.2,2.6-1.7c0.4-0.2,0.7-0.7,1.3-0.4c0.4,1.7-0.4,2.9-2,3.8
	c-1.2,0.6-2.2,1.4-3.5,2.2C152.7,109.2,152.7,108.6,152.7,108z"/>
<path class="st115" d="M82.3,49c-0.9-2.4,2-3.1,3.4-4.6c0,0.7,0.7,2-1,3C83.9,48,83.1,48.5,82.3,49z"/>
<path class="st112" d="M111.1,198.3c1.3-1.8,2-4.5,5.4-5.2c-2,1.3-2,4.7-5,6.3C111.3,199,111.2,198.6,111.1,198.3z"/>
<path class="st112" d="M74.9,45.4c2.2-1.2,4.3,1.4,4.1,3.9c-1.4-0.9-2.9-1.7-3.9-3.2C75,45.9,74.9,45.6,74.9,45.4z"/>
<g>
	<path class="st108" d="M114.8,68.5c-2.4-2-6.4-2-6.6-5.7c-0.2-0.6-0.3-1.1-0.4-1.8c-0.2-0.8-0.4-1.6-0.6-2.3
		c-0.2-0.7-0.5-1.4-0.8-2c0.7,0.3,1.4,0.5,2.1,0.8c0.7,0.2,1.5,0.4,2.2,0.5c1.7,0.5,4.8,0.5,7.2,0.5c0.8,0,1.6,0,2.4,0
		c0,0.8,0,1.6,0,2.4c1.2,3.9-1.9,6.6-5,8C115.1,68.8,114.9,68.8,114.8,68.5z"/>
	<path class="st105" d="M120.3,58.4c-0.4,0.5-1.1,1.2-1.8,1.6c-1,0.2-3,0.2-4-0.7c-0.6-0.3-1.3-0.6-1.9-0.8c-0.7-0.2-1.4-0.2-2.1,0
		c-0.7,0-1.3-0.1-1.9-0.3c-2.8-0.9-4.4-4-5.2-7.7c3,3.6,6.1,2.7,10.1,2.7c1,0,2,1.8,3,2.7c3,1.8,2-2.7,4.1-1.8c0,0.9,0,1.8-0.2,2.5
		C120.3,57.2,120.3,57.8,120.3,58.4z"/>
	<path class="st41" d="M121.5,81.6c0-2.6,0-6.2,0-8.9c4.1,2.7-1,5.4,0.2,7.7C121.7,80.9,121.8,81.3,121.5,81.6z"/>
	<path class="st41" d="M109.1,74c-0.7-1.2-2.8-3-1.7-4.8c3,3.6,10.1,5.4,11.2,10.7c-2-3.6-7.1-1.8-8-5C110,74.6,109.5,74.3,109.1,74
		z"/>
	<path class="st113" d="M109.1,74c2.3,3.2,7.4,4.1,9.4,7.7c-3-1.8-6.1-3.6-9.1-6.2C109.2,74.9,109.2,74.5,109.1,74z"/>
	<path class="st112" d="M121.5,81.6c-1-3.5,2-6.2,2-8.9c0,2.7,1,6.2-1.5,8.4C121.9,81.4,121.8,81.9,121.5,81.6z"/>
</g>
<g>
	<path class="st37" d="M162.2,112.4c-13.3,13.8,5,29-0.1,44.2c-1,1.8-4.1,3.6-5.8,5c-2.6,1.1-5,2.3-7.3,3.7
		c-20.7,12.1-31.1,33-35.6,54.7c0,0-2,0-4.1,0c3-2.7,5.1-7.1,4.1-10.7c-0.9-19.5,9.9-34.9,26.8-46.2c2.4-1.6,5-3.1,7.6-4.6
		c6.1-9.8-2-20.5-3-31.2s9.1-17.8,10.1-27.6c1-4.5-2-8.9-3.7-13.8c0-0.7-0.1-1.8-0.5-3.1c-0.1-1.6-0.4-3.6-1.2-6
		c-1.1-1.5-2.9-2.7-4.4-4.2c-1.2-1.1-2.5-2.2-3.9-3.2c-3.3-2.6,2.5-10.9,5.9-18.3c7.7-8.4,12.9-15.8,1.5-17.3
		c11.6,1.2,11.3,8.7,1.2,19.4c9.2,5.1,8.5,13.5,4.3,23.3c11-6,5.1-2.4,1.4,6.2c18.1,6.8,8.8,0.3,5,12.1c4.8-6.9,5.2-5.9,1.8,3.3
		c7-4.9,7.7-1.7,4.4,7.8c2.1-3.3,0.3-0.2-2.1,3C164.1,109.5,163.2,111,162.2,112.4z"/>
	<path class="st108" d="M139.9,163.5c-0.1-1.5-1.1-3.3-0.1-4.2c3-2.7,9.1-6.2,10.1,0c1,3.6-6.1,2.7-9.5,4.4
		C140.1,163.6,139.9,163.6,139.9,163.5z"/>
	<path class="st105" d="M152.5,157.5c-4.6,0-10.7,0-14.7,2.7c5.1-4.5,11.2-5.4,16.9-6.2C154,155.2,153.2,156.3,152.5,157.5z"/>
	<path class="st109" d="M139.9,163.5c0.9,0.3,2.9,0.3,3.9,0.3c-6.1,1.8-8.1,6.2-11.2,9.8c-1-3.6,2-7.1,5.7-9.2
		C138.8,164,139.2,163.7,139.9,163.5z"/>
	<path class="st41" d="M135.4,172.8c0.3-6.4,7.4-6.4,12.5-7.3c-4.1,2.7-8.1,3.6-11.9,6.4C135.9,172.2,135.7,172.5,135.4,172.8z"/>
	<path class="st114" d="M132.1,170.4c0.4,1.3-0.7,1.3-0.8,2.2c-2.1-0.9-4.3-0.9-1.6-5C130.5,168.5,131.4,169.3,132.1,170.4z"/>
	<path class="st41" d="M132.1,170.4c-3.2-1.4-4-3.1-0.7-5.4c0.3,0.9,1.1,2.6,2.3,3.2C134.1,168.7,132.8,169.6,132.1,170.4z"/>
	<path class="st116" d="M135.4,172.8c2.3-2.8,6.4-4.6,9.4-5.5c-1,1.8-3,2.7-5.4,3.8C138.1,171.7,136.7,172.2,135.4,172.8z"/>
</g>
<path class="st117" d="M42.2,130.9c-0.7,0-1.3,0-2,0c0,0,0-0.1,0-0.1c1.2-0.5,2.4-0.1,3.6-0.2C43.4,131,42.7,130.5,42.2,130.9z"/>
<g>
	<path class="st108" d="M86,98.3c-1.8,4.4-6.8,8.8-11.1,5c-2.2-1.9,0.7-3.8,0-5.7c4.3,1.3,7.9-2.5,10,1C85.3,98.5,85.7,98.1,86,98.3
		z"/>
	<path class="st105" d="M86,98.3c-1.1,0.6-1.8,1.2-2.5,0.6c0-0.6,0-1.9-0.7-1.9c-2.9,0-5.7,1.9-7.9,0.6c-0.7-0.6,0-1.9,0-3.2
		c4.3,2.5,8.6-2.5,12,2.1C86.6,97.2,86.3,97.7,86,98.3z"/>
	<path class="st116" d="M77.8,104.6c1.4,0.7,2.1,1.9,2.1,3c0.2,0.5,0.4,0.9,0.5,1.4c0.7,3.3-0.7,7,0.3,10.1
		c-2.7-2.4-2.9-5.2-2.9-8.1c0-0.6,0-1.1,0-1.7c0-1.5,0-2.2-0.4-3.6C77.4,105.2,77.5,104.9,77.8,104.6z"/>
	<path class="st41" d="M73.1,108.6c-0.2-0.4-0.3-1-0.3-1.5c0-0.7,0-0.7,0-1.3c1.4,0.6,2.2,3.2,3.3,3.6c0.3,0.4,0.6,0.9,0.9,1.3
		c0.5,0.9,0.8,2,0.8,3.2c-1.4-1.3-1.4-2.5-3.2-4C74.1,109.5,73.6,109,73.1,108.6z"/>
	<path class="st41" d="M81.1,117.4c-2-3.9-0.5-8.3,2.3-11.5c0.7,3.8-3.6,6.3-2.3,10.1C81.3,116.4,81.4,116.9,81.1,117.4z"/>
	<path class="st113" d="M73.1,108.6c2.5,1.7,5.4,5.5,4.7,8.6c-0.7-2.5-3.6-4.4-4.6-7.2C73,109.5,73,109.1,73.1,108.6z"/>
	<path class="st115" d="M81.1,117.4c-1.2-3.3,0.9-6.4,2.3-9c0,3.2-0.7,5.7-2,8.9C81.3,118,81.2,118.1,81.1,117.4z"/>
	<path class="st118" d="M79.4,104.9c-1-0.3-1-0.3-1.7-0.3c0.7,0,2.2,0,2.5-0.1C80.1,104.9,79.7,104.6,79.4,104.9z"/>
</g>
<path class="st119" d="M89.5,219.5c-0.3-0.1-0.8,0.2-0.8-0.2c-0.1-0.5,0.4-0.7,0.8-1C89.4,218.7,89.4,219.1,89.5,219.5z"/>
<path class="st120" d="M115.7,192c-0.6-0.6-1.5-0.1-2.1-0.4c0.7-0.2,1.4-0.1,2.2-0.1C115.7,191.7,115.7,191.9,115.7,192z"/>
<g>
	<path class="st108" d="M115.4,129.2c-1-1.3-1.9-2.1-1.7-3.2c0-0.5,0.1-1,0.3-1.5c0.6-1.4,2.1-2.5,3.8-2.5c2.1,0.4,2.5,2,2,3.7
		c-0.2,0.6-0.4,1.1-0.8,1.6c-0.4,1.4-1.3,2.1-2.7,2.3C116.1,129.3,115.8,129.3,115.4,129.2z"/>
	<path class="st105" d="M119.9,121.9c-1.3,0.8-2.2,0.8-3.9,0.8c0.4,0.4,0.6,0.7,0.7,1.1c0.1,0.4,0.1,0.7,0.1,1.1
		c-0.8,1.5-1.7,0.7-2.4,0.2c-0.7-0.6-1.4-1.3-1.8-0.9s-0.4,0.9-0.2,1.5c0.2,0,1.1,8.2,0.7,0c-0.1-0.5-0.2-1.1-0.3-1.6
		c-0.3-2.1,0.1-4.3,2.4-5.8c0.8,3.7,4.2-1.5,5.1,0.7c0,0.7-0.8,1.5-0.4,2.1C119.9,121.3,119.9,121.6,119.9,121.9z"/>
	<path class="st109" d="M116.5,129.3c-1.2,6.8,0.5,13.5-2.9,20.2c-3.4-7.4-0.8-13.4,2.4-20.1C116.2,129.1,116.3,129.2,116.5,129.3z"
		/>
	<path class="st41" d="M115.6,144.4c-0.3-4.6,0.5-9.8,4.7-12.8c0.8,4.5-4.2,7.4-4.5,11.8C115.7,143.8,115.6,144.1,115.6,144.4z"/>
	<path class="st111" d="M108.3,133.2c0.2-0.8,0.2-2.3,0.2-3c5.1,2.2,4.2,8.2,3.4,11.9c-1.7-2.2-2.5-5.2-2.9-7.8
		C108.8,133.8,108.5,133.5,108.3,133.2z"/>
	<path class="st112" d="M108.3,133.2c2.7,4.4,4.4,9.6,4.4,14.8c-4.2-3-2.5-8.9-4.7-12.7C108,134.5,108.1,133.8,108.3,133.2z"/>
	<path class="st112" d="M115.6,144.4c0.5-3.9,3-6.9,4.7-10.6c0,4.5-2.5,8.2-4.2,11.9c0-1.5,0-3-0.8-3.7c0,1.5,0,2.2,0.5,3.7
		C115.7,145.3,115.6,144.9,115.6,144.4z"/>
	<path class="st121" d="M116.5,129.3c-0.5,0.4-0.5,0.4-1.1-0.1C115.8,129.3,116.3,129,116.5,129.3z"/>
</g>
<g>
	<path class="st5" d="M37.3,106.3c-6,4.9-4.9,7.5-4.7,13.8c0.1,2.1,2.1,5.7,2.5,7.6c1.5,2.1-1.4,6.8,0,8.9c1.4,2.1,2.8,4.2,4.2,6.3
		c1.4,2.1,2.8,4.2,4.2,6.3s2.7,4.2,4,6.3c5.1,5.4,10.2,12.6,10.7,19.8c1.2,1.9,2,4.1,2.9,6.1c2.9,6.1,11.6,15.6,10.7,23.8
		c-7.1-11.6-16.2-29-24.7-39.6c-2.1-1.9-4.3-3.8-6.3-5.1c-4.1-2.7-8.4-5.2-13-7.7c-2.2-0.8-4.3-1.8-6.4-2.8c-2.1-1.1-4-2.3-5.8-3.7
		c-1.2-1.6-2.1-3-2.8-4.2c-1.5-2.3-2.3-3.6-2.4-3.8c-1.3-2.6-2.5-5.2-3.5-7.9c-8-15.7,2.1-30.9,19.4-40.7c0.3-0.1,0.7-0.6,1.6-1.8
		C40.4,68.3,22.1,54,10.9,28.3c13.2,25.7,37.6,43.6,35,66.2c-0.5,1.5-1,2.6-1.5,3.3c-1,1.5-2.1,2.9-3.2,4.2
		C40,103.4,38.7,104.9,37.3,106.3z"/>
	<path class="st122" d="M6.6,105.3c-1.7-0.4,4.4,3.1-0.9,1.5C6,106.3,6.3,105.8,6.6,105.3z"/>
	<path class="st108" d="M27.5,97.4c-4.3,5.7-11.4,4.8-16.5,3.9c3-5.4,8.1-3.6,14.6-3.7C26.2,97.4,26.9,97.2,27.5,97.4z"/>
	<path class="st123" d="M15.9,102c-3.9,2-2.9,9.1-10,8.3c1-3.6,4.1-6.2,6.5-8.5C13.7,101.7,15.1,101.6,15.9,102z"/>
	<path class="st105" d="M27.5,97.4c-4.3,1.2-7.4-0.6-11.4-0.6c4.1-3.6,9.1,0,12.9-1.3C28.5,96.1,28,96.8,27.5,97.4z"/>
	<path class="st41" d="M10.9,108.7c3.1-3.8,8.2-3.8,12.2-4.7c-1,0.9-1,0.9-2.5,1.8C17.2,106.6,13.8,107.3,10.9,108.7z"/>
	<path class="st112" d="M10.9,108.7c3.1-1.1,6.1-2.9,10.2-2.9c-3,2.7-7.1,2.7-11.2,4.6C10.3,109.7,10.6,109.2,10.9,108.7z"/>
	<path class="st126" d="M5.7,107.8c0.3-0.2,0.5-0.1,0.7,0c-0.1,0.7-0.6,1.4-1.1,2.1C4.8,109.2,5.2,108.5,5.7,107.8z"/>
	<path class="st127" d="M15.9,102c-0.9,0.2-2.9-0.7-3.9-0.7c2,0,3,0.9,4.9,0.5C16.6,101.8,16.3,101.9,15.9,102z"/>
</g>
<path class="st129" d="M78.5,36.2c-0.6-1.8-1.3-1.7-2.2-0.3c0.2-1.5,0.1-1.6,0-0.1C77.2,34.3,78,34.3,78.5,36.2
	C78.7,34.3,78.7,34.3,78.5,36.2z"/>
<g>
	<path class="st108" d="M78.1,163.4c-1.2-0.6-2.2-1.5-2.7-2.5c-0.2-0.4-0.4-0.9-0.5-1.3c-0.3-1.4,0-2.9,0-4.7c3,1.8,6.1,1.8,9.1,0
		c0.5,1.8,0.3,3.8-0.7,5.4c-0.3,0.5-0.7,1.1-1.2,1.5c-1.2,1.1-3.2,2-3.7,1.9C78.3,163.6,78.1,163.6,78.1,163.4z"/>
	<path class="st105" d="M83.8,154.6c-4.9,3.8-10,0.2-11-4.3c2,0.9,4.1,3.6,6.1,0c-1,4.5,6.1-1.8,4.9,2.6
		C83.8,153.5,83.8,154,83.8,154.6z"/>
	<path class="st113" d="M78.1,163.4c2.9,5.7,0.9,11,1.9,16.4c-5.1-3.6-4.1-9.8-2.4-15.3C77.6,164.1,77.7,163.7,78.1,163.4z"/>
	<path class="st41" d="M70.3,170.2c0.5-2-0.5-3.8,1.5-5.5c3,2.7,6.1,6.2,5.1,10.7c-2-1.8-3-4.5-6-5.6
		C70.8,169.9,70.8,170.2,70.3,170.2z"/>
	<path class="st110" d="M81.7,177.9c-2.8-4.4-1.8-10.6,3.3-13.3c1,4.5-3,7.1-3.8,10.6C81.2,176,81.4,176.8,81.7,177.9z"/>
	<path class="st115" d="M81.7,177.9c-2.8-4.4,1.2-7.1,3.3-9.8c0,2.7-1,5.4-2.7,8.5C82.1,177.1,81.9,177.5,81.7,177.9z"/>
	<path class="st112" d="M70.3,170.2c0.5-1.1,0.5-1.1,0.5-2c1,4.5,8.1,5.4,6.1,10.7c-2-2.7-4.1-5.4-6.2-7.7
		C70.4,170.9,70.2,170.5,70.3,170.2z"/>
	<path class="st130" d="M79.8,163.4c0.1,0.2-1.4,0.2-2.2,0c-0.8-0.2-0.8-0.4,2.2-0.3C79.8,163.3,79.8,163.4,79.8,163.4z"/>
</g>
<path class="st131" d="M152,163c-0.5,0-1,0-1.5,0c0.4-0.3,1-0.1,1.5-0.2C152,162.9,152,162.9,152,163z"/>
<path class="st132" d="M79.1,219.5c-0.9,0.5-1.8,0.1-2.7,0.2c0.3-0.6,0.6-1.4,1.3-1.4C78.4,218.3,78.9,218.8,79.1,219.5z"/>
<path class="st133" d="M115,66.7c-0.5,0.1-1,0.2-1.5,0C114,66.5,114.5,66.5,115,66.7z"/>
<path class="st134" d="M151.5,98.6c-0.5,0-1.1,0-1.6,0C150.5,98.3,151,98.3,151.5,98.6z"/>
<g>
	<path class="st10" d="M107,246.9v4.6c0,0.3-0.1,0.5-0.2,0.7c0-0.1,0-0.2-0.2-0.5c-0.2-0.4-0.4-0.2-0.5-0.3c-0.1-0.1-0.6,0-1-0.1
		c-0.5-0.2-1-0.5-1-0.5v-3.8c0-0.8,0.6-1.4,1.4-1.4h0.1C106.4,245.5,107,246.1,107,246.9z"/>
	<path d="M106.8,252.2c-0.2,0.4-0.7,0.7-1.2,0.7c-0.8,0-1.5-0.6-1.5-1.4v-0.7c0,0,0.6,0.4,1,0.5c0.5,0.2,0.9,0.1,1,0.1
		c0.1,0.1,0.3-0.2,0.5,0.3C106.8,251.9,106.8,252.1,106.8,252.2z"/>
</g>
<g>
	<path class="st10" d="M111.7,247.2c0.2,1.3,0.6,1.5,0.4,1.9c-0.2,0.4-0.4,0.3-0.9,0.8c-0.2,0.2-0.7,0.1-1.1,0v-4.2
		c0-0.8,0.6-1.4,1.4-1.4h0.1c0.8,0,1.4,0.6,1.4,1.4v0.5C112.5,246.1,111.5,246.2,111.7,247.2z"/>
	<path d="M113.1,246.1v4.1c0,0.8-0.6,1.4-1.4,1.4s-1.5-0.6-1.5-1.4v-0.3c0.4,0.1,0.8,0.2,1.1,0c0.5-0.4,0.7-0.3,0.9-0.8
		c0.2-0.4-0.2-0.6-0.4-1.9C111.5,246.2,112.5,246.1,113.1,246.1z"/>
</g>
<g>
	<path class="st108" d="M156.3,91.4c2.8,1.9,1.8,4.6,0.7,8c-0.3,0.6-0.7,1.2-1.1,1.7c-1.3,1.5-3.3,2.1-5.9,1.1
		c-0.8-0.3-1.3-0.7-1.6-1.2c-0.4-0.5-0.5-1-0.5-1.5c0.1-4.4,3.2-8.9,8.1-8.2C156.9,89.7,157.1,89.4,156.3,91.4z"/>
	<path class="st105" d="M156.3,91.4c-1.3,1.9-5.3,1-8.4-0.8c2,1.8,1,4.5,1,6.2c1-4.5-2-8-5.1-11.6c4.1,0,11.2-2.7,11.9,4.4
		C157.3,88.5,157.4,89.1,156.3,91.4z"/>
	<path class="st136" d="M152.8,102.6c0.1-0.4,1.2-0.4,1.2-0.4c-3,1.8-2,5.4-2,7.9c-0.1,0.5-0.2,1-0.4,1.4s-0.4,0.9-0.6,1.4
		c-0.5-0.4-0.9-0.9-1.2-1.3c-0.3-0.4-0.5-0.9-0.6-1.3c0.7-2.7,0.7-4.5,2.1-7.3C151.9,102.7,152.4,102.6,152.8,102.6z"/>
	<path class="st114" d="M148.9,109.8c0,0.4-1.1,1.3-1.1,2.2c-0.2-0.6-0.6-1.1-1-1.6c-0.4-0.5-0.9-1-1.3-1.5
		c-0.8-0.5-0.8-2.3-1.8-3.2c2,0.9,3,1.8,4,3C148.2,109.1,148.6,109.4,148.9,109.8z"/>
	<path class="st41" d="M152.9,110.7c-1-4.9,5.1-5.8,5.1-9.3c1,3.5-3,5.3-3.9,7.9C153.6,109.8,153.3,110.2,152.9,110.7z"/>
	<path class="st41" d="M148.9,109.8c-4.1-2.2-5.1-4.9-5.1-8.5c1,2.7,4.1,3.6,5.1,6.6C149.7,108.6,149.1,109.2,148.9,109.8z"/>
</g>
<path class="st36" d="M64.3,24.2c-0.9-2.7-3.2-4.9-5.4-7c-1.7-1.5-3.4-3.1-5-4.6c-0.3-0.3-0.6-0.6-0.7-1c-0.1-0.4,0.2-0.9,0.7-0.8
	c0.3,0,0.5,0.1,0.7,0.3c0.8,0.6,1.6,1.2,2.4,1.7c0.6,0.4,1.2,0.9,1.5,1.5c0.4,0.7,0.3,1.4,0.3,2.1c-0.2,4.3-0.5,8.9,1.7,12.8
	c0.4,0.8,0.9,1.5,1.2,2.3c0.3,0.9,0.2,2.2,1.2,2.7C64.4,31.4,65.3,27.3,64.3,24.2z"/>
<path class="st5" d="M90.4,9.5c-0.8-2.2-1.4-4.7,0-6.8c0.7,1.7,1.3,3.3,2,5c0.7,1.8,1.4,3.6,2.3,5.3c0.6,1.1,3.5,4,2,5
	C94.3,19.9,90.9,10.9,90.4,9.5z"/>
</svg>
