<?xml version="1.0" encoding="utf-8"?>
<!-- Generator: Adobe Illustrator 25.0.0, SVG Export Plug-In . SVG Version: 6.00 Build 0)  -->
<svg version="1.1" id="Layer_1" xmlns="http://www.w3.org/2000/svg" xmlns:xlink="http://www.w3.org/1999/xlink" x="0px" y="0px"
	 viewBox="0 0 121.4 70.9" style="enable-background:new 0 0 121.4 70.9;" xml:space="preserve">
<style type="text/css">
	.st0{fill:#FFFFFF;}
</style>
<path class="st0" d="M117.7,44.4c0,11.7-18.5,21.2-41.3,21.2c-7.3,0-14.1-1-20.1-2.7c-3.9,4.8-9.8,7.9-16.5,7.9
	c-11.7,0-21.2-9.5-21.2-21.2s9.5-21.2,21.2-21.2c0.1,0,0.1,0,0.2,0c-0.7-2.1-1.1-4.4-1.1-6.7C39,10,48.4,0.6,60.1,0.6
	c9,0,16.6,5.6,19.7,13.5c2.5-1.4,5.4-2.2,8.4-2.2c9.5,0,17.4,8,18.6,18.3C113.6,33.8,117.7,38.9,117.7,44.4z"/>
</svg>
