<?xml version="1.0" encoding="utf-8"?>
<!-- Generator: Adobe Illustrator 25.0.0, SVG Export Plug-In . SVG Version: 6.00 Build 0)  -->
<svg version="1.1" id="Layer_1" xmlns="http://www.w3.org/2000/svg" xmlns:xlink="http://www.w3.org/1999/xlink" x="0px" y="0px"
	 viewBox="0 0 142.8 70.9" style="enable-background:new 0 0 142.8 70.9;" xml:space="preserve">
<style type="text/css">
	.st0{fill:#FFFFFF;}
</style>
<path class="st0" d="M142.1,43.6C142.1,56,125,66,103.8,66c-7.5,0-14.6-1.3-20.5-3.5c-5,5-12.4,8.1-20.8,8.1c-9.4,0-17.6-4-22.5-10
	c-3.7,1.6-7.9,2.5-12.3,2.5c-14.9,0-27-10.1-27-22.5c0-12.1,11.6-22.1,26.1-22.5C29.1,7.9,40.1,0,53.2,0c10.2,0,19.1,4.7,23.7,11.7
	c4.5-2.9,10.2-4.6,16.4-4.6c12.1,0,22.4,6.7,25.8,15.9C132.7,26.4,142.1,34.4,142.1,43.6z"/>
</svg>
