<?xml version="1.0" encoding="utf-8"?>
<!-- Generator: Adobe Illustrator 25.0.0, SVG Export Plug-In . SVG Version: 6.00 Build 0)  -->
<svg version="1.1" id="Layer_1" xmlns="http://www.w3.org/2000/svg" xmlns:xlink="http://www.w3.org/1999/xlink" x="0px" y="0px"
	 viewBox="0 0 142.8 70.9" style="enable-background:new 0 0 142.8 70.9;" xml:space="preserve">
<style type="text/css">
	.st0{fill:#FFFFFF;}
</style>
<path class="st0" d="M93.7,45.7C93.7,45.7,93.7,45.8,93.7,45.7C93.7,57,84.6,66,73.4,66c-6.3,0-11.9-2.9-15.6-7.3
	c-4.7,1-9.9,1.6-15.4,1.6C20.6,60.3,2.9,51.2,2.9,40c0-10.8,16.4-19.6,37.2-20.2c3.7-4.6,9.4-7.6,15.8-7.6c4.8,0,9.3,1.7,12.8,4.5
	c3.1-2.8,7.1-4.5,11.4-4.5c9.9,0,18,9.1,18,20.3C98,37.5,96.4,42.2,93.7,45.7z"/>
</svg>
