<?xml version="1.0" encoding="utf-8"?>
<!-- Generator: Adobe Illustrator 25.0.0, SVG Export Plug-In . SVG Version: 6.00 Build 0)  -->
<svg version="1.1" id="Layer_1" xmlns="http://www.w3.org/2000/svg" xmlns:xlink="http://www.w3.org/1999/xlink" x="0px" y="0px"
	 viewBox="0 0 8192 126.6" style="enable-background:new 0 0 8192 126.6;" xml:space="preserve">
<style type="text/css">
	.st0{fill:#FFFFFF;}
</style>
<path class="st0" d="M479.9,19.8c21-25.2,332.6-14.5,332.6-14.5l216.3,14.5h101.9l216.3-14.5c0,0,376.5-13.8,397.5,11.4
	c81.3-15.8,169.5,7.9,195.4,15.8c129.7-26.2,217.9-12.7,217.9-12.7v105.8H1.6L1.1,22c0,0,72.6,36.8,202.3,28.9
	S479.9,19.8,479.9,19.8z"/>
<path class="st0" d="M7460.3,25.4v92.7c0,3.8-4.6,7-10.2,7H4286.4v0.7H1121.8c-5.6,0-10.2-3.2-10.2-7V26c0-3.5,3.9-6.5,9.1-6.9
	c32.4-2.5,149.2-8.7,309.3,13.1c1.7,0.2,3.4,0.2,4.9-0.2c40.4-8.2,164.6-30.1,280.7-15.9c2.6,0.3,5.1,0,7.3-1
	c51.3-23.1,582.7-9.9,582.7-9.9l318.2,14.4c0.2,0,0.5,0,0.7,0h149.3c0.2,0,0.5,0,0.7,0l318.2-14.4c0,0,445-10.4,488,13.3
	c1.4,0.8,3.1,1.3,4.8,1.5c27.2,2.9,226.3,23.4,403.9,30.7c164.3,6.8,266.3-19.4,291.7-26.9c1.7-0.5,3.4-0.9,5.1-1.1
	c1.8-0.2,50.3-12.2,60.5-9.9c26.4,6.1,72.3,43.8,236.3,37.1c177.6-7.3,376.7-27.9,403.9-30.7c1.8-0.2,3.4-0.7,4.8-1.5
	c43.1-23.7,488-13.3,488-13.3L5797.8,19c0.2,0,0.5,0,0.7,0h149c0.2,0,0.5,0,0.7,0l318.2-14.4c0,0,531.3-13.2,582.7,9.9
	c2.2,1,4.7,1.3,7.3,1c116-14.3,240.2,7.7,280.7,15.9c1.6,0.3,3.3,0.4,4.9,0.2c160.1-21.8,276.8-15.6,309.3-13.1
	C7456.4,18.8,7460.3,21.8,7460.3,25.4z"/>
<path class="st0" d="M7981.1,50.9c129.7,7.9,202.3-28.9,202.3-28.9l-0.5,103.7h-2156V19.8c0,0,88.2-13.5,217.9,12.7
	c25.9-7.9,114.1-31.4,195.4-15.8c21.1-25.2,397.5-11.4,397.5-11.4L7054,19.8h101.9l216.3-14.5c0,0,311.5-10.7,332.6,14.5
	C7704.7,19.8,7851.4,43,7981.1,50.9z"/>
</svg>
