<?xml version="1.0" encoding="utf-8"?>
<!-- Generator: Adobe Illustrator 25.0.0, SVG Export Plug-In . SVG Version: 6.00 Build 0)  -->
<svg version="1.1" id="Layer_1" xmlns="http://www.w3.org/2000/svg" xmlns:xlink="http://www.w3.org/1999/xlink" x="0px" y="0px"
	 viewBox="0 0 183.1 270.7" style="enable-background:new 0 0 183.1 270.7;" xml:space="preserve">
<style type="text/css">
	.st0{fill:#F8EC92;}
	.st1{opacity:0.42;fill:#F8EC92;enable-background:new    ;}
	.st2{fill:#F06D32;}
	.st3{fill:#FEB031;}
	.st4{fill:#FBCF36;}
	.st5{fill:#00978F;}
	.st6{fill:#FFB93B;}
	.st7{fill:#FFFFFF;stroke:#000000;stroke-width:0.25;stroke-miterlimit:10;}
	.st8{fill:#9B1B1D;}
	.st9{fill:#E51F2B;}
	.st10{fill:#FFFFFF;}
	.st11{fill:#175D79;}
	.st12{fill:#AADCEF;}
	.st13{fill:#DBDBDB;}
	.st14{opacity:5.000000e-02;fill:#FFFFFF;enable-background:new    ;}
	.st15{opacity:0.15;fill:none;stroke:#FFFFFF;stroke-width:6;stroke-miterlimit:10;enable-background:new    ;}
	.st16{opacity:0.15;fill:none;stroke:#D2EDFB;stroke-width:4;stroke-miterlimit:10;enable-background:new    ;}
	.st17{fill:none;stroke:#E51F2B;stroke-width:5;stroke-miterlimit:10;}
	.st18{opacity:0.37;fill:#CACACA;enable-background:new    ;}
	.st19{fill:none;stroke:#DBDBDB;stroke-linecap:round;stroke-linejoin:round;}
	.st20{fill:none;stroke:#DBDBDB;stroke-linecap:round;stroke-linejoin:round;stroke-dasharray:8.810000e-02,5.2873;}
	.st21{fill:none;stroke:#DBDBDB;stroke-width:0.5363;stroke-linecap:round;stroke-linejoin:round;stroke-miterlimit:10;}
	.st22{fill:none;stroke:#DBDBDB;stroke-linecap:round;stroke-linejoin:round;stroke-dasharray:9.780000e-02,5.8692;}
	.st23{fill:#90171A;}
	.st24{opacity:5.000000e-02;}
	.st25{opacity:0.15;}
	.st26{fill:#D2EDFB;}
	.st27{opacity:0.37;}
	.st28{fill:#CACACA;}
	.st29{fill:url(#);}
	.st30{fill:none;stroke:#90171A;stroke-width:2;stroke-miterlimit:10;}
	.st31{opacity:0.56;fill:#FFFFFF;enable-background:new    ;}
	.st32{fill:#7B3021;}
	.st33{fill:#913B25;}
	.st34{fill:none;stroke:#913B25;stroke-miterlimit:10;}
	.st35{fill:none;stroke:#7B3021;stroke-miterlimit:10;}
	.st36{fill:#FAF2B5;}
	.st37{fill:#008177;}
	.st38{opacity:0.5;fill:#FAF2B5;enable-background:new    ;}
	.st39{fill:#F5A9A9;}
	.st40{fill:#EC6961;}
	.st41{fill:#4D8D5C;}
	.st42{fill:#0B763E;}
	.st43{fill:#047238;}
	.st44{fill:#76B135;}
	.st45{clip-path:url(#SVGID_2_);}
	.st46{clip-path:url(#SVGID_4_);}
	.st47{fill:#5CA435;}
	.st48{fill:#008C36;}
	.st49{fill:#00712D;}
	.st50{fill:#005E2B;}
	.st51{clip-path:url(#SVGID_6_);}
	.st52{clip-path:url(#SVGID_8_);}
	.st53{fill:#009A3B;}
	.st54{fill:#098132;}
	.st55{fill:#70AF35;}
	.st56{clip-path:url(#SVGID_10_);enable-background:new    ;}
	.st57{clip-path:url(#SVGID_12_);}
	.st58{clip-path:url(#SVGID_14_);enable-background:new    ;}
	.st59{clip-path:url(#SVGID_16_);}
	.st60{clip-path:url(#SVGID_18_);}
	.st61{clip-path:url(#SVGID_20_);}
	.st62{fill:#7AB334;}
	.st63{fill:#098031;}
	.st64{clip-path:url(#SVGID_22_);enable-background:new    ;}
	.st65{clip-path:url(#SVGID_24_);}
	.st66{clip-path:url(#SVGID_26_);enable-background:new    ;}
	.st67{clip-path:url(#SVGID_28_);}
	.st68{clip-path:url(#SVGID_30_);enable-background:new    ;}
	.st69{clip-path:url(#SVGID_32_);}
	.st70{clip-path:url(#SVGID_34_);enable-background:new    ;}
	.st71{clip-path:url(#SVGID_36_);}
	.st72{clip-path:url(#SVGID_38_);enable-background:new    ;}
	.st73{clip-path:url(#SVGID_40_);}
	.st74{clip-path:url(#SVGID_42_);enable-background:new    ;}
	.st75{clip-path:url(#SVGID_44_);}
	.st76{clip-path:url(#SVGID_46_);enable-background:new    ;}
	.st77{clip-path:url(#SVGID_48_);}
	.st78{clip-path:url(#SVGID_50_);enable-background:new    ;}
	.st79{clip-path:url(#SVGID_52_);}
	.st80{clip-path:url(#SVGID_54_);enable-background:new    ;}
	.st81{clip-path:url(#SVGID_56_);}
	.st82{clip-path:url(#SVGID_58_);enable-background:new    ;}
	.st83{clip-path:url(#SVGID_60_);}
	.st84{clip-path:url(#SVGID_62_);enable-background:new    ;}
	.st85{clip-path:url(#SVGID_64_);}
	.st86{clip-path:url(#SVGID_66_);enable-background:new    ;}
	.st87{clip-path:url(#SVGID_68_);}
	.st88{clip-path:url(#SVGID_70_);enable-background:new    ;}
	.st89{clip-path:url(#SVGID_72_);}
	.st90{clip-path:url(#SVGID_74_);enable-background:new    ;}
	.st91{clip-path:url(#SVGID_76_);}
	.st92{clip-path:url(#SVGID_78_);}
	.st93{clip-path:url(#SVGID_80_);}
	.st94{fill:url(#SVGID_81_);}
	.st95{opacity:0.4;fill:#333333;enable-background:new    ;}
	.st96{opacity:0.4;fill:#FFFFFF;enable-background:new    ;}
	.st97{clip-path:url(#SVGID_83_);enable-background:new    ;}
	.st98{clip-path:url(#SVGID_85_);}
	.st99{fill:url(#SVGID_86_);}
	.st100{clip-path:url(#SVGID_88_);enable-background:new    ;}
	.st101{clip-path:url(#SVGID_90_);}
	.st102{fill:url(#SVGID_91_);}
	.st103{fill:#78C9E7;}
	.st104{fill:none;stroke:#B7B7B7;stroke-width:2;stroke-miterlimit:10;}
</style>
<g>
	<path d="M105.2,238.7l-1.1,0.5c-2.5-0.1-5.5,3-7.8,4.1c-9.2,4.7-7.6,8.1-5,7.4l17.6-2.8l0.9-4.4
		C109.7,240.9,107.7,238.8,105.2,238.7z"/>
	<g>
		<g>
			<path class="st13" d="M107.8,238.6l0.9-0.9c1.8-2.8,0-5.7-3.3-6.2l-1.1-0.1c-3.3-0.4-5.3,3.8-4.4,5.6c0.1,0.2,0.4,0.7,0.5,0.9
				C103.1,241.8,105.7,241.3,107.8,238.6z"/>
			<path class="st10" d="M108.9,237.6L108.9,237.6c1.8-1.6,0.1-6.1-3.1-6.5l-1.7-0.2c-3.2-0.4-5.7,2.7-4.6,5.8c0,0,0.6,0.8,0.7,1.1
				c1.4,2.8,5,3.7,7.3,1.1C108,238.4,108.5,237.9,108.9,237.6z"/>
			<path d="M109.7,235.1c0,0.3,0,0.6-0.1,0.9c-0.3-0.1-0.5-0.3-0.6-0.3c-0.1-0.2-1.2-1.8-1.5-2.1c-0.4-0.3-0.8,0.2-1.4,0.6
				c-0.6,0.3-0.5-0.1-1-0.6c-0.5-0.5-0.8,0.6-0.8,0.6l-0.1,0.1c-0.5,0.6-1.2,1-2,1l0,0l-1.4,0.9c0,0-0.6,0.4-0.8,0.7
				c0,0-0.1-0.1-0.2-0.4c-0.4-1.2-0.5-1.9-0.2-3l0.1-6.2c0.1-0.7,0.9-1,1.4-0.4l2.7,3.5c0.1,0,0.2,0.1,0.2,0.1l2.2,0.2
				c0.1,0,0.2,0.1,0.3,0.1l3.4-2.8c0.5-0.4,1.2,0,1.2,0.8L109.7,235.1z"/>
			<path d="M104.7,237.8l0.5-0.6c0.2-0.2,0.1-0.6-0.2-0.6c-0.1,0-0.3,0-0.4,0.1c-0.1,0-0.3-0.1-0.4-0.1c-0.3-0.1-0.5,0.3-0.4,0.5
				l0.3,0.6C104.3,238,104.5,238.1,104.7,237.8z"/>
		</g>
		<path class="st14" d="M100.4,228.8l0.1,3.7l2-1.5l-1.7-2.3C100.7,228.4,100.4,228.6,100.4,228.8z"/>
		<path class="st14" d="M110,229.6l-0.8,3.5l-1.7-1.8l2.1-1.9C109.8,229.2,110.1,229.4,110,229.6z"/>
	</g>
</g>
<g>
	<path class="st32" d="M111.6,246.9v12.9c0,6-4.9,11-10.9,11h-9.1V247L111.6,246.9L111.6,246.9z"/>
	<path class="st33" d="M91.6,246.9v23.8h-9.1c-6,0-10.9-4.9-10.9-11v-12.9L91.6,246.9L91.6,246.9z"/>
	<line class="st34" x1="72" y1="247" x2="72" y2="220.8"/>
	<line class="st35" x1="111.2" y1="247" x2="111.2" y2="220.8"/>
	<line class="st35" x1="98.6" y1="247" x2="98.6" y2="220.8"/>
	<line class="st34" x1="86" y1="247" x2="86" y2="220.8"/>
</g>
<path class="st5" d="M91.6,0v220.8H72.1c-25.5-28.8-45-59.1-55.4-76.6c-5.4-9-8.4-14.6-8.6-15l0,0C2.9,117.7,0,105,0,91.6
	C0,41,41,0,91.6,0z"/>
<path class="st36" d="M64.6,144.2c3.9,17.5,11,47.7,20.4,76.6h-7.2C59.1,192,44.7,161.7,37,144.2c-4-9-6.2-14.6-6.3-15l0,0
	c-3.8-11.5-6-24.2-6-37.7C24.7,41,55,0,92.3,0C73.6,0,58.5,41,58.5,91.6c0,13.4,1.1,26.2,3,37.7l0,0
	C61.6,129.6,62.7,135.2,64.6,144.2z"/>
<path class="st37" d="M183.1,91.6c0,14.1-3.2,27.4-8.9,39.4c0,0,0,0-0.1,0.1c-0.4,0.8-2.6,4.8-6.4,11.2
	c-9.6,16.3-29.6,47.8-56.8,78.5H91.6V0C142.1,0,183.1,41,183.1,91.6z"/>
<path class="st38" d="M119.2,144.2c-3.9,17.5-11,47.7-20.4,76.6h7.2c18.8-28.8,33.2-59.1,40.9-76.6c4-9,6.2-14.6,6.3-15l0,0
	c3.8-11.5,6-24.2,6-37.7C159.1,41,128.9,0,91.6,0c18.6,0,33.8,41,33.8,91.6c0,13.4-1.1,26.2-3,37.7l0,0
	C122.3,129.6,121.2,135.2,119.2,144.2z"/>
<g>
	<path class="st39" d="M71.9,220.9c-0.7-0.9-1.4-1.8-2.2-2.6c-0.9-1-1.4-2.1-1-3.6c0.7,0.7,1.5,1.4,2.1,2.1c0.5,0.5,0.9,0.7,1.5,0.1
		c0.7-0.7,1.4-2.1,2.3-2c0.8,0.1,1.5,1.3,2.2,2c0.5,0.5,0.9,0.6,1.4,0c0.6-0.7,1.3-1.4,2-2.2c0.1,0.1,0.2,0.1,0.3,0.2
		c0,1.5,0,3.1,0,4.6c-0.5,0.3-0.9,0.6-1.1,1.2c0.5,0,0.8,0,1.1,0c0,0.1,0,0.2,0,0.2c-1.5,0-3,0-4.6,0c-0.2-0.8-0.8-1.4-1.4-1.5
		c-0.5-0.1-0.9,0.7-1.3,1.2c-0.1,0.1-0.1,0.2-0.1,0.3C72.7,220.9,72.3,220.9,71.9,220.9z"/>
	<path class="st40" d="M73.1,220.9c0-0.1,0-0.3,0.1-0.3c0.4-0.5,0.8-1.3,1.3-1.2c0.7,0.1,1.2,0.7,1.4,1.5
		C75,220.9,74.1,220.9,73.1,220.9z"/>
	<path class="st41" d="M-0.2,91c0.7,0,1,0.4,0.9,1.1c0,0.8,0,1.5-0.1,2.3c-0.2-0.1-0.4-0.2-0.6-0.2c-0.2-0.4,0.2-0.9-0.3-1.2
		C-0.2,92.2-0.2,91.6-0.2,91z"/>
	<path class="st40" d="M80.5,147.3c0,1.9,0,3.8,0,5.7c0,0.4-0.2,0.7-0.4,1c-1.5,1.8-3.1,2.7-5.7,2.7s-4.2-1-5.6-2.8
		c-0.3-0.3-0.3-0.7-0.3-1.1c0-1.8,0-3.7,0-5.5c1,0.3,1.5,1.2,2.2,1.9c0.6,0.6,1.1,0.8,1.7,0c0.4-0.5,0.9-0.8,1.2-1.3
		c0.6-0.7,1.1-0.9,1.8,0c0.4,0.5,1,0.9,1.4,1.5c0.5,0.6,0.9,0.5,1.4,0C79.1,148.6,79.8,148,80.5,147.3z"/>
	<path class="st40" d="M152.6,147.6c0,1.6,0,3.3,0,4.9c0,0.8-0.3,1.3-0.8,1.9c-1.4,1.8-3.1,2.2-5.4,2.3c-2.6,0.2-4.1-1-5.6-2.7
		c-0.3-0.3-0.4-0.7-0.4-1.1c0-1.8,0-3.7,0-5.5c1,0.4,1.6,1.3,2.3,2c0.6,0.6,1,0.7,1.6,0.1c0.7-0.7,1.3-2,2.3-2c0.9,0,1.5,1.3,2.3,2
		c0.6,0.6,0.9,0.5,1.5,0C151.1,148.8,151.6,147.8,152.6,147.6z"/>
	<path class="st40" d="M152.6,75.4c0,1.7,0,3.4,0,5c0,0.8-0.3,1.3-0.8,1.9c-1.4,1.8-3,2.6-5.3,2.2h-0.1c-2.5,0.6-4.1-0.8-5.6-2.6
		c-0.3-0.4-0.4-0.8-0.4-1.2c0-1.8,0-3.5,0-5.3c1,0.3,1.6,1.3,2.3,2c0.5,0.5,0.9,0.7,1.4,0c0.7-0.7,1.3-2,2.3-2s1.6,1.3,2.4,2
		c0.5,0.5,0.8,0.5,1.3,0C151,76.8,151.5,75.8,152.6,75.4z"/>
	<path class="st40" d="M116.6,111.4c0,1.8,0,3.5,0.1,5.3c0,0.9-0.6,1.3-1,1.9c-1.2,1.6-2.7,2.3-4.6,1.9c-0.2,0-0.3,0-0.5,0
		c-2.6,0.6-4.2-0.9-5.6-2.6c-0.3-0.3-0.3-0.7-0.3-1.1c0-1.8,0-3.6,0-5.4c1.1,0.4,1.6,1.4,2.4,2.1c0.5,0.5,0.8,0.6,1.3,0
		s1.1-1,1.6-1.6c0.6-0.7,1-0.6,1.5,0s1.1,1,1.6,1.6c0.5,0.5,0.8,0.5,1.3,0C115,112.8,115.6,111.8,116.6,111.4z"/>
	<path class="st40" d="M116.6,183.5c0,1.8,0,3.6,0,5.4c0,0.5-0.2,0.8-0.5,1.2c-1.4,1.8-3.1,3-5.5,2.5h-0.1c-2.6,0.6-4.1-0.9-5.6-2.7
		c-0.3-0.3-0.3-0.7-0.3-1.1c0-1.8,0-3.5,0-5.3c1.1,0.3,1.6,1.3,2.4,2c0.5,0.5,0.8,0.6,1.3,0c0.7-0.8,1.5-2,2.3-2.1
		c0.9,0,1.6,1.3,2.4,2.1c0.5,0.5,0.8,0.4,1.3,0C115,184.9,115.5,183.9,116.6,183.5z"/>
	<path class="st40" d="M80.5,3.2c0,1.9,0,3.7,0.1,5.6c0,0.5-0.3,0.9-0.6,1.2c-1.4,1.8-3.1,2.4-5.5,2.5c-2.6,0.1-4.2-1-5.6-2.7
		c-0.2-0.2-0.3-0.4-0.3-0.7c0-1.9,0-3.8,0-5.7c0-0.1,0.1-0.2,0.2-0.3c0.6,1,1.5,1.6,2.3,2.4c0.4,0.4,0.7,0.3,1.1-0.1
		c0.5-0.5,1.1-1,1.5-1.5c0.7-0.9,1.2-0.8,1.8,0c0.4,0.5,1,0.9,1.4,1.4c0.5,0.5,0.8,0.5,1.3,0C79,4.7,79.8,4,80.5,3.2z"/>
	<path class="st40" d="M116.6,39.5c0,1.8,0,3.6,0,5.4c0,0.5-0.2,0.8-0.5,1.2c-1.4,1.8-3.1,3-5.5,2.5h-0.1c-2.6,0.6-4.1-0.9-5.6-2.7
		c-0.3-0.3-0.3-0.7-0.3-1.1c0-1.8,0-3.5,0-5.3c1.1,0.3,1.6,1.3,2.4,2c0.5,0.5,0.8,0.6,1.3,0c0.7-0.8,1.5-2,2.3-2.1
		c0.9,0,1.6,1.3,2.4,2.1c0.5,0.5,0.8,0.4,1.3,0C115,40.9,115.5,39.8,116.6,39.5z"/>
	<path class="st40" d="M44.6,39.2c0,1.9,0,3.7,0,5.6c0,0.5-0.2,0.8-0.5,1.2c-1.5,1.9-3.2,2.6-5.7,2.6c-2.6,0.1-4.1-1.1-5.5-2.7
		c-0.3-0.3-0.4-0.6-0.4-1c0-1.9,0-3.8,0.1-5.7c0.8,0.8,1.6,1.5,2.4,2.3c0.4,0.4,0.7,0.5,1.1,0c0.6-0.7,1.3-1.2,1.8-1.9
		c0.4-0.4,0.7-0.5,1.2,0c0.6,0.6,1.2,1.2,1.8,1.8c0.5,0.5,0.8,0.6,1.3,0C43,40.7,43.8,40,44.6,39.2z"/>
	<path class="st40" d="M80.6,75.4c0,1.4-0.1,2.7,0,4.1c0.1,1.5-0.4,2.6-1.5,3.6c-1.1,1.1-2.1,1.7-3.6,1.4c-0.3,0-0.6-0.1-1,0
		c-2.6,0.6-4.2-0.9-5.6-2.6c-0.3-0.3-0.3-0.6-0.3-1c0-1.9,0-3.8,0-5.7c0.8,0.8,1.6,1.5,2.4,2.3c0.4,0.4,0.7,0.6,1.3,0.1
		c0.7-0.8,1.4-2,2.3-2.1c1.1,0,1.6,1.3,2.5,2.1c0.4,0.4,0.7,0.5,1.2,0C79,76.8,79.6,76,80.6,75.4z"/>
	<path class="st40" d="M44.6,111.4c0,1.4-0.1,2.7,0,4.1c0.1,1.5-0.4,2.6-1.5,3.6c-1.1,1.1-2.1,1.7-3.6,1.4c-0.4-0.1-0.7-0.1-1.1,0
		c-2.5,0.5-4-0.8-5.5-2.5c-0.3-0.4-0.4-0.7-0.4-1.2c0-1.8,0-3.7,0-5.5c0.9,0.6,1.6,1.4,2.3,2.2c0.5,0.5,0.9,0.5,1.4,0
		c0.5-0.6,1.1-1,1.6-1.6s0.9-0.7,1.4,0c0.5,0.6,1.1,1,1.6,1.6s0.9,0.5,1.5,0C43.1,112.7,43.7,111.9,44.6,111.4z"/>
	<path class="st40" d="M8.6,75.4c0,1.7,0,3.3,0,5c0,0.8-0.3,1.3-0.8,1.9c-1.4,1.7-3,2.5-5.2,2.2c-2.3-0.2-2.3-0.1-2.1-2.4
		c0.2-2,0.4-4,0.9-6c0.9-1,1.7-0.8,2.4,0.2c0.3,0.4,0.8,0.7,1.1,1.1c0.5,0.6,0.8,0.5,1.3,0C7,76.8,7.5,75.8,8.6,75.4z"/>
	<path class="st39" d="M116.6,111.4c-1,0.4-1.6,1.4-2.4,2.1c-0.5,0.5-0.8,0.5-1.3,0c-0.5-0.6-1.1-1-1.6-1.6s-1-0.7-1.5,0
		c-0.5,0.6-1.1,1-1.6,1.6s-0.8,0.5-1.3,0c-0.8-0.7-1.3-1.7-2.4-2.1c0-1.5,0-3.1,0-4.8c1,0.5,1.6,1.3,2.2,2c0.6,0.6,1,0.8,1.6,0.1
		c0.7-0.7,1.3-2,2.3-1.9c0.9,0,1.5,1.2,2.2,1.9c0.6,0.6,1,0.7,1.5,0c0.6-0.7,1.4-1.4,2.2-2.2C116.6,108.3,116.6,109.8,116.6,111.4z"
		/>
	<path class="st39" d="M152.6,75.4c-1.1,0.4-1.6,1.4-2.4,2.1c-0.5,0.5-0.8,0.5-1.3,0c-0.8-0.7-1.3-2-2.4-2c-0.9,0-1.6,1.2-2.3,2
		c-0.6,0.6-0.9,0.5-1.4,0c-0.7-0.7-1.2-1.7-2.3-2c0-1.6,0-3.1,0-4.9c1,0.6,1.6,1.4,2.3,2.1c0.5,0.5,0.8,0.6,1.3,0s1.1-1.1,1.7-1.7
		c0.5-0.6,0.9-0.5,1.4,0c0.8,0.7,1.4,2.1,2.3,2c0.8-0.1,1.5-1.3,2.3-2c0.2-0.2,0.3-0.4,0.7-0.3C152.6,72.3,152.6,73.8,152.6,75.4z"
		/>
	<path class="st39" d="M116.6,183.5c-1.1,0.3-1.6,1.4-2.4,2.1c-0.5,0.4-0.8,0.5-1.3,0c-0.8-0.8-1.5-2.2-2.4-2.1
		c-0.8,0-1.6,1.3-2.3,2.1c-0.5,0.6-0.8,0.4-1.3,0c-0.8-0.7-1.3-1.7-2.4-2c0-1.6,0-3.1,0-4.9c1.1,0.7,1.7,1.5,2.4,2.2
		c0.4,0.4,0.7,0.6,1.3,0.1c0.8-0.8,1.4-2.1,2.4-2.1s1.6,1.3,2.3,2.1c0.5,0.5,0.8,0.4,1.3-0.1c0.7-0.7,1.3-1.4,2-2.2
		c0.1,0,0.2,0.1,0.3,0.1C116.6,180.4,116.6,182,116.6,183.5z"/>
	<path class="st39" d="M116.6,39.5c-1.1,0.3-1.6,1.4-2.4,2.1c-0.5,0.4-0.8,0.5-1.3,0c-0.8-0.8-1.5-2.2-2.4-2.1
		c-0.8,0-1.6,1.3-2.3,2.1c-0.5,0.6-0.8,0.4-1.3,0c-0.8-0.7-1.3-1.7-2.4-2c0-1.5,0-2.9,0-4.4c0-0.1,0.1-0.2,0.2-0.4
		c0.9,0.6,1.6,1.4,2.3,2.1c0.4,0.4,0.7,0.6,1.3,0.1c0.8-0.8,1.4-2.1,2.4-2.1s1.6,1.3,2.3,2.1c0.5,0.5,0.8,0.4,1.3-0.1
		c0.7-0.7,1.3-1.5,2-2.2c0.1,0,0.2,0.1,0.3,0.1C116.6,36.3,116.6,37.9,116.6,39.5z"/>
	<path class="st39" d="M152.6,147.6c-1,0.3-1.5,1.2-2.2,1.9c-0.6,0.5-0.9,0.6-1.5,0c-0.7-0.7-1.3-2-2.3-2c-0.9,0-1.5,1.2-2.3,2
		c-0.6,0.6-1,0.5-1.6-0.1c-0.7-0.7-1.3-1.6-2.3-2c-0.2-1.6-0.1-3.1-0.1-4.9c1.1,0.7,1.8,1.6,2.6,2.4c0.4,0.4,0.7,0.5,1.1,0
		c0.6-0.6,1.2-1.2,1.8-1.8c0.5-0.5,0.8-0.6,1.3,0s1.1,1,1.6,1.6c0.6,0.8,1,0.6,1.6,0c0.6-0.7,1.3-1.4,2.2-2.3
		C152.6,144.3,152.6,145.9,152.6,147.6z"/>
	<path class="st39" d="M44.6,111.4c-0.9,0.6-1.5,1.4-2.2,2.1c-0.5,0.5-0.9,0.6-1.5,0c-0.5-0.6-1.1-1-1.6-1.6s-0.9-0.5-1.4,0
		c-0.5,0.6-1.1,1.1-1.6,1.6s-0.9,0.5-1.4,0c-0.7-0.8-1.4-1.6-2.3-2.2c0-1.5,0-3,0-4.6c0.7,0.2,1,0.7,1.4,1.1c1.6,1.6,1.6,1.6,3.3,0
		c0.3-0.3,0.5-0.5,0.8-0.8c0.4-0.5,0.7-0.5,1.2,0c0.6,0.6,1.2,1.2,1.8,1.8c0.5,0.5,0.8,0.6,1.3,0c0.7-0.8,1.4-1.5,2.3-2.4
		C44.6,108.3,44.6,109.8,44.6,111.4z"/>
	<path class="st39" d="M80.6,75.4c-0.9,0.6-1.6,1.5-2.3,2.2c-0.4,0.4-0.7,0.4-1.2,0c-0.8-0.7-1.4-2.1-2.5-2.1c-1,0-1.6,1.3-2.3,2.1
		c-0.5,0.5-0.8,0.4-1.3-0.1c-0.8-0.8-1.6-1.5-2.4-2.3c0-1.5,0-2.9,0-4.7c0.8,0.8,1.6,1.5,2.2,2.2c0.5,0.5,0.9,0.7,1.5,0.1
		c0.7-0.7,1.4-2.1,2.3-2c0.8,0.1,1.5,1.3,2.2,2c0.6,0.6,1,0.5,1.5-0.1c0.6-0.7,1.3-1.4,2.2-2.3C80.6,72.3,80.6,73.8,80.6,75.4z"/>
	<path class="st39" d="M44.6,39.2c-0.8,0.7-1.6,1.4-2.3,2.2c-0.5,0.6-0.8,0.5-1.3,0c-0.5-0.6-1.2-1.2-1.8-1.8
		c-0.4-0.5-0.8-0.4-1.2,0c-0.6,0.6-1.3,1.2-1.8,1.9c-0.4,0.5-0.7,0.4-1.1,0c-0.8-0.8-1.6-1.5-2.4-2.3c0-1.5,0-2.9,0-4.4
		c0.1-0.1,0.2-0.1,0.3-0.2c0.7,0.7,1.4,1.5,2.1,2.2c0.5,0.5,0.8,0.5,1.3,0c0.6-0.6,1.2-1.2,1.9-1.9c0.4-0.4,0.6-0.4,1,0
		c0.6,0.6,1.3,1.2,1.9,1.9c0.5,0.5,0.8,0.5,1.3,0c0.7-0.8,1.3-1.5,2-2.2c0.1,0,0.2,0.1,0.3,0.1C44.6,36.3,44.6,37.7,44.6,39.2z"/>
	<path class="st39" d="M80.5,147.3c-0.7,0.7-1.5,1.3-2.1,2.1c-0.5,0.6-0.9,0.7-1.4,0c-0.4-0.5-1-0.9-1.4-1.5c-0.7-0.8-1.2-0.7-1.8,0
		c-0.4,0.5-0.9,0.8-1.2,1.3c-0.6,0.8-1.1,0.6-1.7,0c-0.7-0.7-1.2-1.6-2.2-1.9c0-1.5,0-3.1,0-5c1,1,1.7,1.7,2.4,2.5
		c0.4,0.5,0.7,0.6,1.2,0.1c0.8-0.8,1.4-2.1,2.4-2.1s1.6,1.3,2.3,2.1c0.5,0.5,0.8,0.4,1.2-0.1c0.6-0.7,1.3-1.4,1.9-2.1
		c0.1,0.1,0.2,0.1,0.3,0.2C80.5,144.3,80.5,145.8,80.5,147.3z"/>
	<path class="st42" d="M145.2,91.4c0-1.9,0-3.8,0-5.6c0-0.8,0.2-1.1,1-1c0.3,0,0.6,0,1,0c0.7-0.1,0.9,0.2,0.9,0.9
		c0,3.8,0,7.7,0,11.5c0,0.5-0.1,0.8-0.7,0.8c-2.1,0.1-2.1,0.1-2.1-2C145.2,94.5,145.2,93,145.2,91.4z"/>
	<path class="st42" d="M112,127.4c0,1.9,0,3.8,0,5.6c0,0.7-0.2,1.1-0.9,0.9c-0.1,0-0.2,0-0.2,0c-1.9,0-1.7,0.2-1.7-1.6
		c0-3.5,0-6.9,0-10.4c0-0.9,0.3-1.2,1.1-1.1c0.2,0,0.3,0,0.5,0c1-0.2,1.3,0.1,1.3,1.2C111.9,123.8,112,125.6,112,127.4z"/>
	<path class="st42" d="M4,91.4c0,1.9,0,3.8,0,5.6c0,0.8-0.2,1-0.9,1c-1.9,0-1.9,0-1.9-1.8c0-3.4,0-6.8,0-10.2c0-0.9,0.2-1.2,1.1-1.1
		c2,0,1.7-0.3,1.7,1.6C4,88.1,4,89.8,4,91.4z"/>
	<path class="st42" d="M109.2,199.4c0-1.9,0-3.7,0-5.6c0-0.7,0.2-1.1,0.9-0.9h0.1c1.8,0,1.8,0,1.8,1.7c0,3.5,0,6.9,0,10.4
		c0,0.8-0.2,1.2-1,1c-0.3,0-0.6,0-1,0c-0.7,0.1-0.9-0.2-0.9-0.9C109.2,203.2,109.2,201.3,109.2,199.4z"/>
	<path class="st42" d="M148,163.5c0,1.9,0,3.7,0,5.6c0,0.7-0.2,1-0.9,1c-1.9,0-1.9,0-1.9-1.8c0-3.4,0-6.9,0-10.3
		c0-0.8,0.2-1.2,1-1.1c0.3,0,0.6,0,1,0c0.7-0.1,0.9,0.2,0.9,0.9C148,159.6,148,161.5,148,163.5z"/>
	<path class="st42" d="M112,55.5c0,1.8,0,3.7,0,5.5c0,0.8-0.2,1.1-1,1c-0.3,0-0.6,0-1,0c-0.8,0.1-0.9-0.2-0.9-0.9
		c0-3.7,0-7.4,0-11.1c0-0.9,0.2-1.3,1.1-1.1c0.2,0,0.3,0,0.5,0c1-0.2,1.3,0.1,1.3,1.2C111.9,51.8,112,53.7,112,55.5z"/>
	<path class="st43" d="M73.2,91.3c0-1.8,0-3.7,0-5.5c0-0.8,0.3-1.1,1-1c0.3,0,0.6,0,1,0c0.8-0.1,0.9,0.2,0.9,0.9c0,3.7,0,7.5,0,11.2
		c0,0.8-0.2,1.1-1,1c-0.3,0-0.6,0-0.8,0c-0.8,0.1-1.1-0.2-1.1-1C73.2,95.1,73.2,93.2,73.2,91.3z"/>
	<path class="st43" d="M40,127.4c0,1.8-0.1,3.7,0,5.5c0,0.9-0.3,1.2-1.1,1.1c-0.3,0-0.6,0-0.8,0c-0.6,0.1-0.9-0.1-0.9-0.8
		c0-3.8,0-7.6,0-11.5c0-0.7,0.2-0.8,0.9-0.8c2,0,2,0,2,1.9C40,124.3,40,125.9,40,127.4z"/>
	<path class="st43" d="M76,163.5c0,1.9,0,3.7,0,5.6c0,0.7-0.1,1-0.9,1c-1.9,0-1.9,0-1.9-2c0-3.4,0-6.8,0-10.2c0-0.8,0.2-1.2,1.1-1
		c0.4,0,0.7,0,1.1,0c0.6-0.1,0.7,0.2,0.7,0.7C76,159.6,76,161.5,76,163.5z"/>
	<path class="st43" d="M76,19.4c0,1.9,0,3.7,0,5.6c0,0.7-0.1,1-0.9,1c-2,0-2,0-2-2c0-3.4,0-6.8,0-10.2c0-0.8,0.2-1.2,1-1.1
		c0.3,0,0.6,0,1,0c0.7-0.1,0.9,0.2,0.9,0.8C76,15.6,76,17.5,76,19.4z"/>
	<path class="st43" d="M37.2,55.3c0-1.9,0-3.8,0-5.6c0-0.8,0.2-1,0.9-0.9h0.1c1.8,0,1.8,0,1.8,1.7c0,3.4,0,6.9,0,10.3
		c0,0.9-0.1,1.3-1.1,1.1c-0.2,0-0.3,0-0.5,0c-1,0.2-1.4-0.1-1.3-1.2C37.3,58.9,37.2,57.1,37.2,55.3z"/>
	<path class="st39" d="M80.5,3.2C79.8,4,79,4.7,78.2,5.5c-0.5,0.5-0.8,0.5-1.3,0s-1-0.9-1.4-1.4c-0.6-0.8-1.2-0.9-1.8,0
		c-0.4,0.6-1,1-1.5,1.5c-0.4,0.4-0.7,0.5-1.1,0.1c-0.7-0.8-1.7-1.5-2.3-2.4c2.2-0.8,4.6-1.1,6.9-1.6C77,1.3,78.2,1.3,79.4,1
		c0.9-0.2,1.3,0,1.2,0.9C80.5,2.4,80.5,2.8,80.5,3.2z"/>
	<path class="st39" d="M8.6,75.4c-1.1,0.3-1.6,1.4-2.4,2.1c-0.5,0.5-0.9,0.6-1.3,0c-0.3-0.4-0.8-0.7-1.1-1.1c-0.8-1-1.5-1.2-2.4-0.2
		c0-1.7,0.6-3.3,0.9-5c0.1-0.7,0.5-0.6,0.9-0.2c0.6,0.6,1.3,1.2,1.8,1.9c0.4,0.4,0.7,0.4,1.1,0c0.8-0.7,1.4-1.6,2.5-2.3
		C8.6,72.3,8.6,73.8,8.6,75.4z"/>
	<path class="st42" d="M145.2,17.7c0.9,0.7,1.7,1.3,2.4,1.8c0.4,0.3,0.4,0.7,0.4,1.1c0,1.5,0,3,0,4.4c0,0.8-0.2,1.1-1,1
		c-0.3,0-0.6,0-1,0c-0.7,0.1-0.9-0.2-0.9-0.9C145.2,22.7,145.2,20.3,145.2,17.7z"/>
	<path class="st39" d="M176.6,111.3c0-1.5,0-3,0-4.7c0.9,0.5,1.5,1.2,2.1,1.9c0.6,0.7,1.1,0.9,1.7,0c0.2-0.3,0.5-0.5,1-1
		c-0.3,2.2-0.7,4.2-1.3,6.1c-0.5,0.3-0.8,0.2-1.3-0.2C178.2,112.8,177.5,111.9,176.6,111.3z"/>
	<path class="st41" d="M112.6,202.4c0-0.8,0-1.7-0.1-2.5c0-0.4,0.2-0.7,0.5-0.9c1.6-1.2,3.2-2.4,4.9-3.7c0.2,1.2,0.1,2.2,0,3.2
		c-0.3,0-0.5,0.2-0.7,0.4C115.7,200.1,114.1,201.3,112.6,202.4z"/>
	<path class="st41" d="M148.6,166.5v-0.1c-0.4-2,0.2-3.6,2.1-4.6c1.1-0.6,2.1-1.5,3.3-2.4c0,1.3,0,2.3,0,3.4
		c-0.4-0.1-0.6,0.2-0.8,0.4C151.6,164.2,150.1,165.3,148.6,166.5z"/>
	<path class="st41" d="M112.6,58.4c0-0.8,0-1.7-0.1-2.5c0-0.4,0.2-0.7,0.5-0.9c1.6-1.2,3.2-2.4,4.9-3.7c0.2,1.2,0.1,2.2,0,3.2
		c-0.3,0-0.5,0.2-0.7,0.4C115.7,56.1,114.1,57.2,112.6,58.4z"/>
	<path class="st41" d="M103.2,54.6c0-1,0-2.1,0-3.3c1.3,0.9,2.3,2,3.6,2.7c1.9,1.1,2.3,2.6,1.8,4.5c-0.5-0.4-1-0.8-1.5-1.1
		C105.8,56.4,104.7,55.2,103.2,54.6z"/>
	<path class="st41" d="M103.2,198.6c0-1,0-2.1,0-3.3c1.3,0.9,2.3,2,3.6,2.7c1.9,1.1,2.3,2.6,1.8,4.5c-0.5-0.4-1-0.8-1.5-1.1
		C105.8,200.4,104.7,199.2,103.2,198.6z"/>
	<path class="st41" d="M112.6,130.3c-0.2-0.8,0-1.6-0.1-2.4c0-0.4,0.2-0.7,0.5-0.9c1.6-1.2,3.2-2.4,4.9-3.7c0.2,1.1,0.1,2.1,0,3.1
		C116.1,127.6,114.5,129.2,112.6,130.3z"/>
	<path class="st41" d="M103.2,126.5c0-1,0-2,0-3.2c1.3,1,2.4,2.1,3.8,2.8c1.8,1,2,2.5,1.6,4.2c-0.3-0.2-0.7-0.4-1-0.6
		C106.1,128.6,104.8,127.4,103.2,126.5z"/>
	<path class="st41" d="M4.6,94.3c0-0.8,0-1.6-0.1-2.4c0-0.3,0-0.6,0.3-0.8c1.6-1.2,3.3-2.5,5.1-3.8c0,1.2,0.1,2.3,0,3.3
		c-0.4,0.2-0.8,0.4-1.1,0.7C7.4,92.2,6,93.3,4.6,94.3z"/>
	<path class="st41" d="M139.3,90.5c-0.1-1-0.1-2,0-3.2c1.8,1.4,3.4,2.6,5.1,3.9c0.6,0.5,0.3,1.1,0.3,1.7c0,0.5,0,1-0.1,1.5
		c-0.2-0.1-0.4-0.2-0.6-0.4C142.4,92.8,141,91.5,139.3,90.5z"/>
	<path class="st41" d="M148.6,94.3c0-0.8,0-1.6-0.1-2.4c0-0.3,0-0.6,0.3-0.8c1.6-1.2,3.3-2.5,5.1-3.8c0,1.2,0.1,2.3,0,3.3
		c-0.4,0.2-0.8,0.4-1.1,0.7C151.4,92.2,150,93.3,148.6,94.3z"/>
	<path class="st41" d="M67.2,90.5c0-1,0-2,0-3.3c1.9,1.4,3.6,2.7,5.2,4c0.6,0.5,0.2,1.2,0.3,1.8c0,0.4,0,0.9-0.1,1.3
		c-0.3-0.2-0.7-0.4-1-0.6C70.1,92.7,68.9,91.3,67.2,90.5z"/>
	<path class="st41" d="M139.3,18.3c0-1,0-2,0-3.1c1.8,1.3,3.4,2.6,5.1,3.9c0.6,0.5,0.3,1.1,0.3,1.7c0,0.5,0,0.9-0.1,1.4
		C142.7,21.1,141.1,19.6,139.3,18.3z"/>
	<path class="st41" d="M139.3,162.4c0-1,0-2,0-3.1c1.8,1.3,3.4,2.6,5.1,3.9c0.6,0.5,0.3,1.1,0.3,1.7c0,0.5,0,0.9-0.1,1.4
		C142.7,165.2,141.1,163.6,139.3,162.4z"/>
	<path class="st40" d="M176.6,111.3c0.9,0.6,1.6,1.5,2.3,2.2c0.4,0.4,0.8,0.5,1.3,0.2c-0.4,1.9-1,3.8-1.6,5.7
		c-1.2-1-2.3-1.7-2.1-3.5C176.7,114.4,176.6,112.9,176.6,111.3z"/>
	<path class="st43" d="M72.6,166.2c0.1,1,0.1,2,0,3.2c-1.7-1.3-3.4-2.6-5-3.8c-0.6-0.4-0.4-1-0.4-1.5s0-1,0-1.4
		c0.4-0.1,0.7,0.2,1,0.5C69.7,164.1,70.9,165.5,72.6,166.2z"/>
	<path class="st43" d="M72.6,22.2c0.1,1,0.1,2,0,3.2c-1.7-1.3-3.4-2.6-5-3.8c-0.6-0.4-0.4-1-0.4-1.5s0-1,0-1.4
		c0.4-0.1,0.7,0.2,1,0.5C69.7,20,70.9,21.4,72.6,22.2z"/>
	<path class="st41" d="M76.6,94.3c-0.4-2,0.1-3.5,2-4.6c1.2-0.6,2.2-1.6,3.4-2.5c0,1.2,0,2.2,0,3.2c-0.4,0-0.6,0.3-0.8,0.5
		C79.6,92.1,78.1,93.2,76.6,94.3z"/>
	<path class="st41" d="M40.6,130.3c-0.4-1.9,0.1-3.4,1.9-4.5c1.2-0.6,2.2-1.6,3.4-2.5c0.2,1.2,0.1,2.3,0.1,3.4
		c-0.4-0.1-0.7,0.2-1,0.4C43.5,128.1,42.2,129.4,40.6,130.3z"/>
	<path class="st41" d="M72.6,22.2c-1.7-0.8-2.9-2.2-4.4-3.1c-0.3-0.2-0.6-0.5-1-0.5c0-1.1,0-2.1,0-3.4c1.9,1.4,3.7,2.6,5.2,4
		C73.1,19.9,72.6,21.2,72.6,22.2z"/>
	<path class="st41" d="M76.6,22.2c0-0.8,0-1.6-0.1-2.4c0-0.3,0.1-0.5,0.3-0.7c1.7-1.3,3.3-2.5,5.1-3.9c0,1.2,0,2.1,0,3.1
		C80.1,19.6,78.6,21.2,76.6,22.2z"/>
	<path class="st41" d="M72.6,166.2c-1.7-0.8-2.9-2.2-4.4-3.1c-0.3-0.2-0.6-0.5-1-0.5c0-1.1,0-2.1,0-3.4c1.9,1.4,3.7,2.6,5.2,4
		C73.1,164,72.6,165.2,72.6,166.2z"/>
	<path class="st41" d="M76.6,166.2c0-0.8,0-1.6-0.1-2.4c0-0.3,0.1-0.5,0.3-0.7c1.7-1.3,3.3-2.5,5.1-3.9c0,1.2,0,2.1,0,3.1
		C80.1,163.6,78.6,165.2,76.6,166.2z"/>
	<path class="st41" d="M40.6,58.4c-0.4-2.1,0.2-3.6,2.1-4.7c1.1-0.6,2.1-1.5,3.3-2.4c0,1.3,0,2.3,0,3.3C44,55.6,42.4,57.2,40.6,58.4
		z"/>
	<path class="st41" d="M31.2,126.4c0-1,0-2,0-3.2c1.8,1.4,3.7,2.6,5.2,4.1c0.7,0.7,0.2,2,0.2,3c-0.3,0-0.5-0.2-0.7-0.4
		C34.3,128.8,32.9,127.4,31.2,126.4z"/>
	<path class="st41" d="M31.2,54.5c0-1,0-2,0-3.3c1.9,1.4,3.6,2.7,5.3,4c0.5,0.4,0.2,1.1,0.2,1.6s0,1,0,1.6c-0.4-0.3-0.9-0.7-1.3-1
		C33.9,56.5,32.8,55.2,31.2,54.5z"/>
	<path class="st43" d="M103.2,198.6c1.5,0.6,2.5,1.8,3.9,2.7c0.5,0.3,1,0.8,1.5,1.1c0,0.9,0,1.9,0,3c-1.8-1.4-3.6-2.6-5.2-4
		C102.7,200.8,103.2,199.6,103.2,198.6z"/>
	<path class="st43" d="M31.2,126.4c1.7,1,3.1,2.3,4.7,3.4c0.2,0.2,0.4,0.4,0.7,0.4c0,1,0,2,0,3.2c-1.8-1.4-3.5-2.7-5.2-4
		c-0.5-0.4-0.2-1.1-0.2-1.7C31.1,127.3,31.2,126.9,31.2,126.4z"/>
	<path class="st43" d="M31.2,54.5c1.6,0.7,2.7,2,4.1,2.9c0.5,0.3,0.9,0.7,1.3,1c0,0.9,0,1.9,0,3.1c-1.8-1.4-3.6-2.7-5.3-4
		c-0.5-0.4-0.2-1-0.2-1.6C31.1,55.4,31.2,55,31.2,54.5z"/>
	<path class="st43" d="M76.6,94.3c1.5-1.1,3.1-2.3,4.6-3.4c0.3-0.2,0.4-0.5,0.8-0.5c0.4,2-0.2,3.5-2.1,4.5c-1.1,0.6-2.1,1.5-3.2,2.3
		c-0.1,0-0.1-0.1-0.2,0C76.6,96.2,76.6,95.3,76.6,94.3z"/>
	<path class="st43" d="M67.2,90.5c1.7,0.8,2.9,2.2,4.4,3.2c0.3,0.2,0.7,0.4,1,0.6c0,0.9,0,1.9,0,3.1c-1.2-0.9-2.2-1.9-3.4-2.5
		C67.4,93.9,66.8,92.5,67.2,90.5z"/>
	<path class="st43" d="M4.6,94.3c1.4-1,2.8-2.1,4.2-3.1c0.3-0.3,0.7-0.5,1.1-0.7v0.1c0.4,1.8-0.1,3.2-1.8,4.2
		c-1.2,0.7-2.2,1.6-3.5,2.6C4.5,96.2,4.5,95.3,4.6,94.3z"/>
	<path class="st43" d="M148.6,94.3c1.4-1,2.8-2.1,4.2-3.1c0.3-0.3,0.7-0.5,1.1-0.7v0.1c0.4,1.8-0.1,3.2-1.8,4.2
		c-1.2,0.7-2.2,1.6-3.5,2.6C148.5,96.2,148.5,95.3,148.6,94.3z"/>
	<path class="st43" d="M40.6,58.4c1.9-1.2,3.4-2.8,5.4-3.8c0.4,1.9-0.2,3.3-2,4.3c-1.2,0.6-2.2,1.6-3.3,2.5
		C40.4,60.3,40.5,59.3,40.6,58.4z"/>
	<path class="st43" d="M139.3,162.4c1.8,1.3,3.4,2.8,5.4,3.9c0,0.9,0,1.9,0.1,2.8c-0.1,0-0.3,0-0.4,0c-1.5-1.1-3-2.3-4.6-3.4
		c-0.5-0.4-0.5-0.8-0.5-1.3C139.2,163.7,139.2,163.1,139.3,162.4z"/>
	<path class="st43" d="M40.6,130.3c1.6-0.9,2.9-2.1,4.4-3.1c0.3-0.2,0.6-0.5,1-0.4c0.4,1.9-0.2,3.2-2,4.2c-1.2,0.7-2.2,1.6-3.4,2.6
		C40.6,132.3,40.6,131.3,40.6,130.3z"/>
	<path class="st43" d="M76.6,166.2c2-1,3.5-2.6,5.4-3.8c0.4,2-0.2,3.6-2.1,4.6c-1,0.6-1.9,1.4-2.9,2.1c-0.1,0-0.3,0-0.4,0
		C76.6,168.1,76.6,167.2,76.6,166.2z"/>
	<path class="st43" d="M139.3,18.3c1.8,1.3,3.4,2.8,5.4,3.9c0,0.9,0,1.9,0.1,2.8c-0.1,0-0.3,0-0.4,0c-1.5-1.1-3-2.3-4.6-3.4
		c-0.5-0.4-0.5-0.8-0.5-1.3C139.2,19.7,139.2,19,139.3,18.3z"/>
	<path class="st43" d="M76.6,22.2c2-1,3.5-2.6,5.4-3.8c0.4,2-0.2,3.6-2.1,4.6c-1,0.6-1.9,1.4-2.9,2.1c-0.1,0-0.3,0-0.4,0
		C76.6,24.1,76.6,23.1,76.6,22.2z"/>
	<path class="st43" d="M139.3,90.5c1.7,1,3.2,2.4,4.8,3.5c0.2,0.1,0.4,0.2,0.6,0.4c0,0.9,0,1.9,0,2.8c-0.1,0-0.1,0-0.2,0.1
		c-1.6-1.2-3.2-2.4-4.9-3.6c-0.5-0.4-0.4-0.9-0.4-1.4C139.2,91.7,139.2,91.1,139.3,90.5z"/>
	<path class="st43" d="M103.2,54.6c1.5,0.6,2.5,1.8,3.9,2.7c0.5,0.3,1,0.8,1.5,1.1c0.1,0.9,0.1,1.9,0,3c-1.8-1.4-3.6-2.6-5.1-4
		C102.7,56.7,103.2,55.5,103.2,54.6z"/>
	<path class="st43" d="M103.2,126.5c1.6,0.9,2.9,2.2,4.4,3.2c0.3,0.2,0.7,0.4,1,0.6c0.2,1,0.1,1.9,0,2.9c-0.7-0.1-1.1-0.6-1.6-1
		c-0.7-0.5-1.2-1.1-1.9-1.4C103.3,129.9,102.9,128.4,103.2,126.5z"/>
	<path class="st43" d="M112.6,202.4c1.5-1.2,3.1-2.3,4.6-3.5c0.2-0.2,0.4-0.4,0.7-0.4c0.4,1.9-0.2,3.4-2,4.4
		c-1.2,0.6-2.1,1.6-3.3,2.5C112.5,204.3,112.5,203.4,112.6,202.4z"/>
	<path class="st43" d="M112.6,130.3c1.9-1.1,3.4-2.7,5.3-3.8v0.1c0.4,1.9-0.1,3.4-1.9,4.3c-1.2,0.6-2.2,1.6-3.4,2.5
		C112.5,132.3,112.5,131.3,112.6,130.3z"/>
	<path class="st43" d="M112.6,58.4c1.5-1.2,3.1-2.3,4.6-3.5c0.2-0.2,0.4-0.4,0.7-0.4c0.3,1.9-0.1,3.4-1.9,4.3
		c-1.2,0.6-2.2,1.6-3.3,2.5C112.5,60.2,112.5,59.3,112.6,58.4z"/>
	<path class="st43" d="M148.6,166.5c1.5-1.1,3-2.3,4.5-3.5c0.3-0.2,0.5-0.4,0.8-0.4c0.4,1.7-0.7,2.9-1.7,4s-2.3,1.8-3.6,2.8
		C148.6,168.3,148.6,167.4,148.6,166.5z"/>
	<path class="st39" d="M40.9,181c0.6,0.4,1.1,0.3,1.5-0.2c0.6-0.7,1.3-1.4,1.9-2.1c0.1,0.1,0.2,0.1,0.3,0.2c0,1.5,0,3,0,4.4
		c-0.5,0.4-0.9,0.8-1.4,1.2c-1-1-1.7-2.1-2.4-3.3C40.8,181.1,40.8,181,40.9,181z"/>
	<path class="st42" d="M149.8,21.4c0.7,0.4,1.3,1,2,1.6c-1.1,0.8-2.1,1.6-3.2,2.4c-0.1-1.2-0.1-2.2,0-3.2
		C149.1,22.1,149.5,21.8,149.8,21.4z"/>
	<path class="st41" d="M175.2,126.4c0-1,0-2,0-2.9c1.8,0.6,1.9,1.1,0.7,3.2C175.7,126.6,175.5,126.5,175.2,126.4z"/>
	<path class="st40" d="M43.1,184.4c0.5-0.4,0.9-0.8,1.4-1.2c0,1,0,1.9,0,3.2C43.9,185.7,43.4,185.2,43.1,184.4z"/>
	<path class="st42" d="M0.1,94.1c0.2,0.1,0.4,0.2,0.6,0.2c0,1,0,1.9,0,2.9C-0.2,96.3,0.1,95.2,0.1,94.1z"/>
	<path class="st42" d="M176.4,58.2c-1.2-0.6-1.3-1.6-1.1-3.1C175.7,56.3,176.4,57.1,176.4,58.2L176.4,58.2z"/>
	<path class="st41" d="M149.8,21.4c-0.3,0.4-0.7,0.7-1.2,0.8c-0.1-0.5-0.1-1.1,0-1.7C149.2,20.6,149.5,21,149.8,21.4z"/>
	<path class="st42" d="M175.2,126.4c0.2,0.1,0.5,0.2,0.7,0.2c0,0.5-0.3,0.9-0.7,1.4C175.2,127.5,175.2,127,175.2,126.4z"/>
	<path class="st40" d="M80.6,220.6c-0.3,0-0.7,0-1.1,0c0.3-0.6,0.7-1,1.1-1.2C80.6,219.8,80.6,220.2,80.6,220.6z"/>
	<path class="st41" d="M144.3,169.1c0.1,0,0.3,0,0.4,0c0,0.1-0.1,0.2-0.1,0.3C144.5,169.3,144.4,169.2,144.3,169.1z"/>
	<path class="st39" d="M40.5,180.6c-0.1,0-0.4,0-0.2-0.2C40.3,180.3,40.5,180.4,40.5,180.6C40.6,180.6,40.5,180.6,40.5,180.6z"/>
	<path class="st39" d="M40.7,181.1c-0.1-0.2-0.2-0.3-0.3-0.5l0.1-0.1c0.1,0.1,0.2,0.3,0.3,0.4C40.8,181,40.8,181.1,40.7,181.1z"/>
	<path class="st41" d="M76.5,169.1c0.1,0,0.3,0,0.4,0c-0.1,0.1-0.2,0.2-0.3,0.2C76.6,169.3,76.6,169.2,76.5,169.1z"/>
	<path class="st41" d="M144.3,25.1c0.1,0,0.3,0,0.4,0c0,0.1-0.1,0.2-0.1,0.3C144.5,25.2,144.4,25.1,144.3,25.1z"/>
	<path class="st41" d="M76.5,25c0.1,0,0.3,0,0.4,0c-0.1,0.1-0.2,0.2-0.3,0.2C76.6,25.2,76.6,25.1,76.5,25z"/>
	<path class="st41" d="M144.5,97.2c0.1,0,0.1-0.1,0.2-0.1c0,0.1,0,0.1,0,0.2C144.6,97.3,144.5,97.3,144.5,97.2z"/>
	<path class="st41" d="M76.5,97.2c0.1,0,0.1,0,0.2,0c0,0.1-0.1,0.1-0.1,0.2C76.6,97.3,76.6,97.2,76.5,97.2z"/>
	<path class="st42" d="M176.3,58.2l0.1-0.1L176.3,58.2z"/>
</g>
<g>
	<path class="st10" d="M103.4,241.6v-5.3c0-0.3-0.1-0.6-0.2-0.9c0,0.1,0,0.3-0.2,0.6c-0.2,0.5-0.4,0.2-0.5,0.3c-0.1,0.1-0.6,0-1,0.2
		c-0.5,0.2-1,0.6-1,0.6v4.5c0,0.9,0.6,1.7,1.4,1.7h0.1C102.8,243.3,103.4,242.6,103.4,241.6z"/>
	<path d="M103.2,235.5c-0.2-0.5-0.7-0.8-1.2-0.8c-0.8,0-1.5,0.7-1.5,1.7v0.9c0,0,0.6-0.4,1-0.6c0.5-0.2,0.9-0.1,1-0.2
		c0.1-0.1,0.3,0.2,0.5-0.3C103.2,235.7,103.2,235.5,103.2,235.5z"/>
</g>
<g>
	<path class="st10" d="M108,241.3c0.2-1.5,0.6-1.7,0.4-2.3c-0.2-0.5-0.4-0.4-0.9-0.9c-0.2-0.2-0.6-0.1-1,0v4.9
		c0,0.9,0.6,1.7,1.4,1.7h0.1c0.8,0,1.4-0.7,1.4-1.7v-0.5C108.8,242.5,107.9,242.4,108,241.3z"/>
	<path d="M109.4,242.5v-4.8c0-0.9-0.6-1.7-1.4-1.7s-1.5,0.7-1.5,1.7v0.4c0.4-0.1,0.8-0.2,1,0c0.5,0.5,0.7,0.4,0.9,0.9
		c0.2,0.5-0.2,0.7-0.4,2.3C107.9,242.4,108.8,242.5,109.4,242.5z"/>
</g>
</svg>
